
<svg id="Layer_1" data-name="Layer 1" xmlns="http://www.w3.org/2000/svg" viewBox="0 0 595.28 70.16"><defs><style>.cls-1{fill:#f69e1e;}.cls-2{fill:#fff;}.cls-3,.cls-4{fill:none;}.cls-4{stroke:#fff;stroke-linejoin:round;stroke-width:5px;}.cls-5{fill:#010101;}</style></defs><path class="cls-1" d="M78.41,35.16A4.14,4.14,0,0,1,77.84,39c-2.08,3.11-3.57,6.28-7.54,7.21a13,13,0,0,1-1.52.24,4.26,4.26,0,0,1-4.41,2.66c-5.7-.29-11.08-.45-15.36-4.78-2.42-2.45-4.37-5.88-4-9.12H0v35H595.28v-35Z"/><path class="cls-2" d="M103.53,52.56a3.29,3.29,0,0,1,.59,2,3.5,3.5,0,0,1-.67,2.21,2.67,2.67,0,0,1-2.27,1A2.71,2.71,0,0,1,99,56.92a3.46,3.46,0,0,1-.7-2.21,3.5,3.5,0,0,1,.6-2.06,2.58,2.58,0,0,1,2.28-1.1A2.7,2.7,0,0,1,103.53,52.56Zm-.71,3.79a3.25,3.25,0,0,0,.48-1.76,2.54,2.54,0,0,0-.55-1.69,1.91,1.91,0,0,0-1.5-.64,1.94,1.94,0,0,0-1.51.64,2.65,2.65,0,0,0-.58,1.87,2.71,2.71,0,0,0,.5,1.67,1.87,1.87,0,0,0,1.62.67A1.67,1.67,0,0,0,102.82,56.35Z"/><path class="cls-2" d="M105.12,52a1.12,1.12,0,0,1,1-.37h.31v.66h-.26c-.23,0-.36.06-.41.17a3.73,3.73,0,0,0-.06.88h.73v.57h-.73v3.75H105V53.91h-.6v-.57h.6v-.68A1.29,1.29,0,0,1,105.12,52Z"/><path class="cls-2" d="M107.21,52a1.15,1.15,0,0,1,1-.37h.31v.66h-.27c-.22,0-.35.06-.4.17a3.73,3.73,0,0,0-.06.88h.73v.57h-.73v3.75h-.72V53.91h-.61v-.57h.61v-.68A1.41,1.41,0,0,1,107.21,52Zm2,.54v-.82h.73v.82Zm0,.81h.73v4.32h-.73Z"/><path class="cls-2" d="M113.68,53.55a1.74,1.74,0,0,1,.55,1.23h-.71a1.32,1.32,0,0,0-.29-.67.93.93,0,0,0-.74-.26,1,1,0,0,0-1,.68,2.64,2.64,0,0,0-.19,1.08,2.09,2.09,0,0,0,.27,1.1.94.94,0,0,0,.87.45,1,1,0,0,0,.72-.28,1.63,1.63,0,0,0,.36-.76h.71a1.72,1.72,0,0,1-1.85,1.66,1.65,1.65,0,0,1-1.36-.62,2.4,2.4,0,0,1-.5-1.55,2.62,2.62,0,0,1,.55-1.78,1.81,1.81,0,0,1,1.42-.64A1.89,1.89,0,0,1,113.68,53.55Z"/><path class="cls-2" d="M114.75,51.71h.74v.82h-.74Zm0,1.63h.74v4.32h-.74Z"/><path class="cls-2" d="M118.71,55a.4.4,0,0,0,.34-.21.67.67,0,0,0,0-.28.58.58,0,0,0-.27-.54,1.43,1.43,0,0,0-.76-.17.93.93,0,0,0-.8.31,1,1,0,0,0-.18.51h-.68a1.28,1.28,0,0,1,.52-1.12,2.12,2.12,0,0,1,1.16-.32,2.3,2.3,0,0,1,1.24.3,1,1,0,0,1,.48.9v2.5a.3.3,0,0,0,0,.18s.1.07.2.07h.11l.13,0v.54l-.26.06h-.24a.59.59,0,0,1-.55-.27,1.1,1.1,0,0,1-.13-.4,1.76,1.76,0,0,1-.64.51,2,2,0,0,1-.92.21,1.36,1.36,0,0,1-1-.36,1.21,1.21,0,0,1-.38-.92,1.17,1.17,0,0,1,.37-.93,1.79,1.79,0,0,1,1-.41Zm-1.53,2a.84.84,0,0,0,.54.18,1.66,1.66,0,0,0,.75-.18,1,1,0,0,0,.61-1v-.59a1,1,0,0,1-.35.14,3,3,0,0,1-.41.09l-.44,0a1.81,1.81,0,0,0-.6.17.65.65,0,0,0-.33.6A.59.59,0,0,0,117.18,57Z"/><path class="cls-2" d="M120.81,51.71h.73v5.95h-.73Z"/><path class="cls-2" d="M124.6,51.71h1.16l1.71,5,1.7-5h1.14v5.95h-.77V54.15c0-.13,0-.33,0-.61s0-.58,0-.9l-1.7,5h-.8l-1.71-5v.18c0,.15,0,.37,0,.67s0,.52,0,.66v3.51h-.77Z"/><path class="cls-2" d="M133.91,53.44a1.63,1.63,0,0,1,.65.56,1.87,1.87,0,0,1,.29.77,5.09,5.09,0,0,1,.07.95h-3.16a1.85,1.85,0,0,0,.31,1.06,1,1,0,0,0,.9.4,1.15,1.15,0,0,0,.9-.37,1.26,1.26,0,0,0,.27-.51h.72a1.71,1.71,0,0,1-.19.53,2.31,2.31,0,0,1-.36.48,1.76,1.76,0,0,1-.82.44,2.61,2.61,0,0,1-.59.06,1.82,1.82,0,0,1-1.36-.59,2.3,2.3,0,0,1-.56-1.65,2.54,2.54,0,0,1,.56-1.7,1.88,1.88,0,0,1,1.48-.65A1.92,1.92,0,0,1,133.91,53.44Zm.26,1.7a1.81,1.81,0,0,0-.21-.75,1,1,0,0,0-1-.53,1.08,1.08,0,0,0-.83.36,1.34,1.34,0,0,0-.36.92Z"/><path class="cls-2" d="M135.63,53.32h.72v.62a2.57,2.57,0,0,1,.47-.47,1.47,1.47,0,0,1,.82-.25,1.27,1.27,0,0,1,.83.26,1.39,1.39,0,0,1,.33.43,1.48,1.48,0,0,1,.57-.52,1.61,1.61,0,0,1,.74-.17,1.21,1.21,0,0,1,1.19.63,2.16,2.16,0,0,1,.17.92v2.89h-.76v-3a.69.69,0,0,0-.22-.59.83.83,0,0,0-.52-.16,1,1,0,0,0-.74.28,1.27,1.27,0,0,0-.31,1v2.53h-.74V54.83a1.49,1.49,0,0,0-.11-.65.65.65,0,0,0-.62-.3,1.08,1.08,0,0,0-.75.32,1.55,1.55,0,0,0-.34,1.16v2.3h-.73Z"/><path class="cls-2" d="M142.27,51.69H143v2.16a1.63,1.63,0,0,1,.57-.48,1.66,1.66,0,0,1,.73-.16,1.71,1.71,0,0,1,1.32.55,2.36,2.36,0,0,1,.5,1.65,2.74,2.74,0,0,1-.5,1.7,1.59,1.59,0,0,1-1.38.68,1.43,1.43,0,0,1-.84-.23,1.94,1.94,0,0,1-.43-.46v.56h-.68Zm2.79,5a2.28,2.28,0,0,0,.29-1.24,2,2,0,0,0-.29-1.13,1,1,0,0,0-.87-.45,1.19,1.19,0,0,0-.87.37,1.64,1.64,0,0,0-.38,1.21,2.5,2.5,0,0,0,.16,1,1.06,1.06,0,0,0,1.07.72A1,1,0,0,0,145.06,56.68Z"/><path class="cls-2" d="M149.42,53.44a1.63,1.63,0,0,1,.65.56,1.74,1.74,0,0,1,.29.77,4.34,4.34,0,0,1,.07.95h-3.16a1.93,1.93,0,0,0,.31,1.06,1,1,0,0,0,.9.4,1.13,1.13,0,0,0,.9-.37,1.26,1.26,0,0,0,.27-.51h.72a1.49,1.49,0,0,1-.19.53,2.31,2.31,0,0,1-.36.48,1.78,1.78,0,0,1-.81.44,2.68,2.68,0,0,1-.59.06,1.82,1.82,0,0,1-1.37-.59,2.3,2.3,0,0,1-.56-1.65,2.5,2.5,0,0,1,.57-1.7,1.85,1.85,0,0,1,1.47-.65A1.92,1.92,0,0,1,149.42,53.44Zm.26,1.7a1.81,1.81,0,0,0-.21-.75,1,1,0,0,0-1-.53,1.08,1.08,0,0,0-.83.36,1.34,1.34,0,0,0-.36.92Z"/><path class="cls-2" d="M151.16,53.32h.7v.75a1.51,1.51,0,0,1,.41-.53,1.11,1.11,0,0,1,.77-.32h.23V54H153a1,1,0,0,0-.85.36,1.2,1.2,0,0,0-.3.81v2.5h-.73Z"/><path class="cls-2" d="M158.94,53.75a2.2,2.2,0,0,1,.57,1.65,2.9,2.9,0,0,1-.5,1.73,1.86,1.86,0,0,1-1.58.68,1.78,1.78,0,0,1-1.41-.6,2.42,2.42,0,0,1-.52-1.63,2.58,2.58,0,0,1,.55-1.74,1.85,1.85,0,0,1,1.48-.65A2,2,0,0,1,158.94,53.75Zm-.45,2.89a2.9,2.9,0,0,0,.26-1.22,2.16,2.16,0,0,0-.19-1,1.07,1.07,0,0,0-1.05-.6,1,1,0,0,0-1,.51,2.39,2.39,0,0,0-.3,1.23,2.07,2.07,0,0,0,.3,1.15,1,1,0,0,0,.95.46A1,1,0,0,0,158.49,56.64Z"/><path class="cls-2" d="M160.54,52a1.15,1.15,0,0,1,1-.37h.3v.66h-.26c-.22,0-.36.06-.4.17a3.52,3.52,0,0,0-.07.88h.73v.57h-.73v3.75h-.72V53.91h-.6v-.57h.6v-.68A1.4,1.4,0,0,1,160.54,52Z"/><path class="cls-2" d="M164.67,51.71h.82v5.95h-.82Z"/><path class="cls-2" d="M166.51,53.32h.69v.75a1.7,1.7,0,0,1,.42-.53,1.09,1.09,0,0,1,.77-.32h.23V54h-.24a1,1,0,0,0-.84.36,1.2,1.2,0,0,0-.3.81v2.5h-.73Z"/><path class="cls-2" d="M171.37,55a.4.4,0,0,0,.34-.21.67.67,0,0,0,0-.28.58.58,0,0,0-.27-.54,1.45,1.45,0,0,0-.76-.17,1,1,0,0,0-.81.31,1.12,1.12,0,0,0-.17.51h-.68a1.25,1.25,0,0,1,.52-1.12,2.12,2.12,0,0,1,1.16-.32,2.3,2.3,0,0,1,1.24.3,1,1,0,0,1,.47.9v2.5a.3.3,0,0,0,0,.18s.1.07.2.07h.11l.13,0v.54l-.26.06h-.25a.58.58,0,0,1-.54-.27,1.1,1.1,0,0,1-.13-.4,1.76,1.76,0,0,1-.64.51,2,2,0,0,1-.92.21,1.36,1.36,0,0,1-1-.36,1.22,1.22,0,0,1-.39-.92,1.18,1.18,0,0,1,.38-.93,1.79,1.79,0,0,1,1-.41Zm-1.53,2a.84.84,0,0,0,.54.18,1.66,1.66,0,0,0,.75-.18,1,1,0,0,0,.61-1v-.59a1,1,0,0,1-.35.14l-.41.09-.44,0a1.73,1.73,0,0,0-.6.17.66.66,0,0,0-.34.6A.59.59,0,0,0,169.84,57Z"/><path class="cls-2" d="M173.45,53.32h.69v.62a1.94,1.94,0,0,1,.66-.55,1.73,1.73,0,0,1,.76-.17,1.27,1.27,0,0,1,1.25.65,2.23,2.23,0,0,1,.18,1v2.79h-.74V54.92a1.49,1.49,0,0,0-.12-.64.72.72,0,0,0-.71-.4,1.61,1.61,0,0,0-.42,0,1.1,1.1,0,0,0-.53.36,1,1,0,0,0-.23.44,2.73,2.73,0,0,0-.06.66v2.27h-.73Z"/><path class="cls-2" d="M178.69,51.71l-.13,2.38h-.47L178,51.71Z"/><path class="cls-2" d="M179.67,56.3a1.06,1.06,0,0,0,.18.56,1.2,1.2,0,0,0,1,.35,1.4,1.4,0,0,0,.72-.18.59.59,0,0,0,.32-.54.47.47,0,0,0-.25-.43,3.09,3.09,0,0,0-.64-.21l-.58-.14a3,3,0,0,1-.84-.31.93.93,0,0,1-.47-.82,1.23,1.23,0,0,1,.45-1,1.76,1.76,0,0,1,1.2-.38,1.71,1.71,0,0,1,1.44.57,1.23,1.23,0,0,1,.26.79h-.68a.9.9,0,0,0-.18-.45,1.16,1.16,0,0,0-.89-.29,1.09,1.09,0,0,0-.64.16.51.51,0,0,0,.06.87,1.69,1.69,0,0,0,.49.18l.49.11a3.77,3.77,0,0,1,1.07.37,1,1,0,0,1,.43.88,1.32,1.32,0,0,1-.45,1,1.88,1.88,0,0,1-1.35.42,1.81,1.81,0,0,1-1.39-.44A1.59,1.59,0,0,1,179,56.3Z"/><path class="cls-2" d="M185.37,51.71h.95l3,4.8v-4.8h.77v5.95h-.9l-3-4.8v4.8h-.77Z"/><path class="cls-2" d="M193.38,55a.38.38,0,0,0,.33-.21.67.67,0,0,0,0-.28.6.6,0,0,0-.26-.54,1.45,1.45,0,0,0-.76-.17,1,1,0,0,0-.81.31.93.93,0,0,0-.17.51h-.68a1.23,1.23,0,0,1,.52-1.12,2.09,2.09,0,0,1,1.15-.32,2.34,2.34,0,0,1,1.25.3,1,1,0,0,1,.47.9v2.5a.24.24,0,0,0,.05.18s.09.07.19.07h.11l.13,0v.54l-.26.06h-.24a.61.61,0,0,1-.55-.27,1,1,0,0,1-.12-.4,1.85,1.85,0,0,1-.64.51,2,2,0,0,1-.92.21,1.4,1.4,0,0,1-1-.36,1.24,1.24,0,0,1-.38-.92,1.14,1.14,0,0,1,.38-.93,1.79,1.79,0,0,1,1-.41Zm-1.54,2a.87.87,0,0,0,.55.18,1.65,1.65,0,0,0,.74-.18,1,1,0,0,0,.61-1v-.59a1,1,0,0,1-.34.14l-.42.09-.44,0a1.67,1.67,0,0,0-.59.17.64.64,0,0,0-.34.6A.61.61,0,0,0,191.84,57Z"/><path class="cls-2" d="M195.6,52.11h.74v1.21H197v.59h-.69v2.84a.3.3,0,0,0,.15.3.68.68,0,0,0,.29,0H197v.58l-.26.05-.29,0a.8.8,0,0,1-.7-.27,1.15,1.15,0,0,1-.18-.67V53.91H195v-.59h.58Z"/><path class="cls-2" d="M197.55,51.71h.74v.82h-.74Zm0,1.63h.74v4.32h-.74Z"/><path class="cls-2" d="M202.33,53.75a2.21,2.21,0,0,1,.58,1.65,2.84,2.84,0,0,1-.51,1.73,1.84,1.84,0,0,1-1.57.68,1.75,1.75,0,0,1-1.41-.6,2.42,2.42,0,0,1-.53-1.63,2.63,2.63,0,0,1,.55-1.74,1.85,1.85,0,0,1,1.48-.65A2,2,0,0,1,202.33,53.75Zm-.45,2.89a2.76,2.76,0,0,0,.26-1.22,2.16,2.16,0,0,0-.19-1,1.07,1.07,0,0,0-1-.6,1,1,0,0,0-1,.51,2.39,2.39,0,0,0-.3,1.23,2.07,2.07,0,0,0,.3,1.15,1.05,1.05,0,0,0,1,.46A1,1,0,0,0,201.88,56.64Z"/><path class="cls-2" d="M203.59,53.32h.7v.62a1.82,1.82,0,0,1,.65-.55,1.73,1.73,0,0,1,.76-.17,1.26,1.26,0,0,1,1.25.65,2.23,2.23,0,0,1,.18,1v2.79h-.74V54.92a1.49,1.49,0,0,0-.12-.64.7.7,0,0,0-.7-.4,1.63,1.63,0,0,0-.43,0,1.15,1.15,0,0,0-.53.36,1,1,0,0,0-.23.44,2.73,2.73,0,0,0-.06.66v2.27h-.73Z"/><path class="cls-2" d="M210.32,55a.4.4,0,0,0,.34-.21.67.67,0,0,0,.05-.28.58.58,0,0,0-.27-.54,1.41,1.41,0,0,0-.75-.17,1,1,0,0,0-.81.31,1,1,0,0,0-.18.51H208a1.28,1.28,0,0,1,.52-1.12,2.15,2.15,0,0,1,1.16-.32,2.28,2.28,0,0,1,1.24.3,1,1,0,0,1,.48.9v2.5a.3.3,0,0,0,0,.18s.1.07.2.07h.11l.13,0v.54l-.26.06h-.24a.6.6,0,0,1-.55-.27,1.1,1.1,0,0,1-.13-.4,1.68,1.68,0,0,1-.64.51,2,2,0,0,1-.91.21,1.37,1.37,0,0,1-1-.36,1.21,1.21,0,0,1-.38-.92,1.17,1.17,0,0,1,.37-.93,1.79,1.79,0,0,1,1-.41Zm-1.53,2a.85.85,0,0,0,.55.18,1.65,1.65,0,0,0,.74-.18,1,1,0,0,0,.61-1v-.59a1,1,0,0,1-.35.14,3,3,0,0,1-.41.09l-.44,0a1.67,1.67,0,0,0-.59.17.64.64,0,0,0-.34.6A.61.61,0,0,0,208.79,57Z"/><path class="cls-2" d="M212.42,51.71h.73v5.95h-.73Z"/><path class="cls-2" d="M216.31,51.71h4.32v.73H217.1v1.8h3.26v.69H217.1v2h3.59v.71h-4.38Z"/><path class="cls-2" d="M221.48,51.71h.73v5.95h-.73Z"/><path class="cls-2" d="M223.1,51.71h.74v.82h-.74Zm0,1.63h.74v4.32h-.74Z"/><path class="cls-2" d="M224.88,52.11h.73v1.21h.7v.59h-.7v2.84a.31.31,0,0,0,.16.3.63.63,0,0,0,.28,0h.26v.58l-.26.05-.3,0a.77.77,0,0,1-.69-.27,1.15,1.15,0,0,1-.18-.67V53.91h-.59v-.59h.59Z"/><path class="cls-2" d="M229.51,53.44a1.63,1.63,0,0,1,.65.56,1.74,1.74,0,0,1,.29.77,4.34,4.34,0,0,1,.07.95h-3.16a1.93,1.93,0,0,0,.31,1.06,1,1,0,0,0,.9.4,1.13,1.13,0,0,0,.9-.37,1.26,1.26,0,0,0,.27-.51h.72a1.49,1.49,0,0,1-.19.53,2.31,2.31,0,0,1-.36.48,1.78,1.78,0,0,1-.81.44,2.74,2.74,0,0,1-.59.06,1.82,1.82,0,0,1-1.37-.59,2.3,2.3,0,0,1-.56-1.65,2.5,2.5,0,0,1,.57-1.7,1.85,1.85,0,0,1,1.47-.65A1.92,1.92,0,0,1,229.51,53.44Zm.26,1.7a1.81,1.81,0,0,0-.21-.75,1,1,0,0,0-1-.53,1.08,1.08,0,0,0-.83.36,1.34,1.34,0,0,0-.36.92Z"/><path class="cls-2" d="M231.67,56.3a1.06,1.06,0,0,0,.18.56,1.21,1.21,0,0,0,1,.35,1.46,1.46,0,0,0,.73-.18.58.58,0,0,0,.31-.54.47.47,0,0,0-.25-.43,3.17,3.17,0,0,0-.63-.21l-.59-.14a2.78,2.78,0,0,1-.83-.31.92.92,0,0,1-.48-.82,1.23,1.23,0,0,1,.45-1,1.77,1.77,0,0,1,1.21-.38,1.69,1.69,0,0,1,1.43.57,1.3,1.3,0,0,1,.27.79h-.69a.9.9,0,0,0-.18-.45,1.16,1.16,0,0,0-.89-.29,1.12,1.12,0,0,0-.64.16.5.5,0,0,0-.22.42.49.49,0,0,0,.29.45,1.61,1.61,0,0,0,.48.18l.49.11a4,4,0,0,1,1.08.37,1,1,0,0,1,.42.88,1.34,1.34,0,0,1-.44,1,1.93,1.93,0,0,1-1.36.42,1.83,1.83,0,0,1-1.39-.44A1.64,1.64,0,0,1,231,56.3Z"/><path class="cls-2" d="M237.44,51.71h4.13v.73h-3.32v1.8h2.92V55h-2.92v2.71h-.81Z"/><path class="cls-2" d="M245.27,53.75a2.17,2.17,0,0,1,.58,1.65,2.84,2.84,0,0,1-.51,1.73,1.84,1.84,0,0,1-1.57.68,1.77,1.77,0,0,1-1.41-.6,2.42,2.42,0,0,1-.53-1.63,2.63,2.63,0,0,1,.55-1.74,1.85,1.85,0,0,1,1.48-.65A2,2,0,0,1,245.27,53.75Zm-.45,2.89a2.76,2.76,0,0,0,.27-1.22,2.15,2.15,0,0,0-.2-1,1.07,1.07,0,0,0-1-.6,1,1,0,0,0-1,.51,2.39,2.39,0,0,0-.3,1.23,2.07,2.07,0,0,0,.3,1.15,1.05,1.05,0,0,0,1,.46A1,1,0,0,0,244.82,56.64Z"/><path class="cls-2" d="M247.26,53.32V56.2a1.2,1.2,0,0,0,.11.54.7.7,0,0,0,.7.39,1,1,0,0,0,1-.68,2.7,2.7,0,0,0,.15-1V53.32H250v4.34h-.69V57a1.55,1.55,0,0,1-.35.41,1.47,1.47,0,0,1-1,.34,1.27,1.27,0,0,1-1.24-.61,1.9,1.9,0,0,1-.18-.89v-3Z"/><path class="cls-2" d="M250.94,53.32h.69v.62a1.91,1.91,0,0,1,.65-.55,1.77,1.77,0,0,1,.77-.17,1.28,1.28,0,0,1,1.25.65,2.25,2.25,0,0,1,.17,1v2.79h-.74V54.92a1.67,1.67,0,0,0-.11-.64.72.72,0,0,0-.71-.4,1.61,1.61,0,0,0-.42,0,1.1,1.1,0,0,0-.53.36,1.13,1.13,0,0,0-.24.44,3.53,3.53,0,0,0-.05.66v2.27h-.73Z"/><path class="cls-2" d="M257.73,53.45a2.15,2.15,0,0,1,.44.43V51.69h.7v6h-.66v-.61a1.58,1.58,0,0,1-.6.58,1.7,1.7,0,0,1-.79.18,1.58,1.58,0,0,1-1.25-.61,2.34,2.34,0,0,1-.53-1.62,2.81,2.81,0,0,1,.48-1.64,1.72,1.72,0,0,1,2.21-.49Zm-1.63,3.26a1,1,0,0,0,.94.46,1,1,0,0,0,.83-.43,2,2,0,0,0,.33-1.25,1.89,1.89,0,0,0-.34-1.22,1,1,0,0,0-.82-.39,1.08,1.08,0,0,0-.89.42,1.91,1.91,0,0,0-.34,1.24A2.16,2.16,0,0,0,256.1,56.71Z"/><path class="cls-2" d="M262.07,55a.4.4,0,0,0,.34-.21.67.67,0,0,0,0-.28.58.58,0,0,0-.27-.54,1.39,1.39,0,0,0-.75-.17,1,1,0,0,0-.81.31,1,1,0,0,0-.18.51h-.68a1.28,1.28,0,0,1,.52-1.12,2.15,2.15,0,0,1,1.16-.32,2.34,2.34,0,0,1,1.25.3,1,1,0,0,1,.47.9v2.5a.3.3,0,0,0,0,.18.23.23,0,0,0,.2.07h.11l.13,0v.54l-.26.06h-.24a.6.6,0,0,1-.55-.27,1,1,0,0,1-.12-.4,1.85,1.85,0,0,1-.64.51,2,2,0,0,1-.92.21,1.39,1.39,0,0,1-1-.36,1.24,1.24,0,0,1-.38-.92,1.17,1.17,0,0,1,.37-.93,1.82,1.82,0,0,1,1-.41Zm-1.53,2a.87.87,0,0,0,.55.18,1.65,1.65,0,0,0,.74-.18,1,1,0,0,0,.61-1v-.59a1,1,0,0,1-.34.14l-.42.09-.44,0a1.67,1.67,0,0,0-.59.17.64.64,0,0,0-.34.6A.61.61,0,0,0,260.54,57Z"/><path class="cls-2" d="M264.3,52.11H265v1.21h.69v.59H265v2.84a.3.3,0,0,0,.15.3.68.68,0,0,0,.29,0h.25v.58l-.26.05-.29,0a.79.79,0,0,1-.7-.27,1.15,1.15,0,0,1-.18-.67V53.91h-.59v-.59h.59Z"/><path class="cls-2" d="M266.25,51.71H267v.82h-.74Zm0,1.63H267v4.32h-.74Z"/><path class="cls-2" d="M271,53.75a2.2,2.2,0,0,1,.57,1.65,2.83,2.83,0,0,1-.5,1.73,1.84,1.84,0,0,1-1.57.68,1.79,1.79,0,0,1-1.42-.6,2.47,2.47,0,0,1-.52-1.63,2.63,2.63,0,0,1,.55-1.74,1.85,1.85,0,0,1,1.48-.65A2,2,0,0,1,271,53.75Zm-.45,2.89a2.9,2.9,0,0,0,.26-1.22,2.16,2.16,0,0,0-.19-1,1.07,1.07,0,0,0-1-.6,1,1,0,0,0-1,.51,2.39,2.39,0,0,0-.3,1.23,2.07,2.07,0,0,0,.3,1.15,1,1,0,0,0,.95.46A1,1,0,0,0,270.58,56.64Z"/><path class="cls-2" d="M272.29,53.32h.7v.62a1.82,1.82,0,0,1,.65-.55,1.73,1.73,0,0,1,.76-.17,1.27,1.27,0,0,1,1.25.65,2.23,2.23,0,0,1,.18,1v2.79h-.74V54.92a1.49,1.49,0,0,0-.12-.64.71.71,0,0,0-.71-.4,1.61,1.61,0,0,0-.42,0,1.1,1.1,0,0,0-.53.36,1,1,0,0,0-.23.44,2.73,2.73,0,0,0-.06.66v2.27h-.73Z"/><path class="cls-3" d="M66.06,21.7A13.45,13.45,0,0,0,52.62,34.87H79.51A13.45,13.45,0,0,0,66.06,21.7Z"/><path class="cls-2" d="M99.59,45.64a2.29,2.29,0,0,0,.31,1.13,2.08,2.08,0,0,0,1.87.81,3.48,3.48,0,0,0,1.1-.17,1.26,1.26,0,0,0,.95-1.24,1.08,1.08,0,0,0-.4-1,4,4,0,0,0-1.29-.48l-1.07-.25A5.26,5.26,0,0,1,99.57,44a1.73,1.73,0,0,1-.75-1.53,2.4,2.4,0,0,1,.74-1.81,3,3,0,0,1,2.1-.71,3.62,3.62,0,0,1,2.13.62,2.29,2.29,0,0,1,.87,2h-1a2.1,2.1,0,0,0-.34-1,1.92,1.92,0,0,0-1.65-.64,1.9,1.9,0,0,0-1.35.41,1.35,1.35,0,0,0-.41,1,.94.94,0,0,0,.49.88,7,7,0,0,0,1.44.44l1.11.26a3.37,3.37,0,0,1,1.23.52A2,2,0,0,1,104.9,46a2.09,2.09,0,0,1-1,1.94,4.25,4.25,0,0,1-2.24.59,3.3,3.3,0,0,1-2.33-.78,2.67,2.67,0,0,1-.82-2.1Z"/><path class="cls-2" d="M106.24,40.66h1v1.66h.95v.82h-.95V47a.43.43,0,0,0,.21.42.93.93,0,0,0,.39.06H108l.2,0v.8a2.29,2.29,0,0,1-.36.07,2.61,2.61,0,0,1-.4,0,1.13,1.13,0,0,1-1-.35,1.66,1.66,0,0,1-.25-.94V43.14h-.8v-.82h.8Z"/><path class="cls-2" d="M109.92,42.32v4a1.6,1.6,0,0,0,.15.74,1,1,0,0,0,1,.54,1.38,1.38,0,0,0,1.39-.94,3.85,3.85,0,0,0,.2-1.37V42.32h1v6h-.94V47.4a1.92,1.92,0,0,1-.48.57,2,2,0,0,1-1.36.47,1.74,1.74,0,0,1-1.7-.85,2.49,2.49,0,0,1-.25-1.22v-4Z"/><path class="cls-2" d="M118.25,42.51a2.84,2.84,0,0,1,.6.58v-3h1v8.2h-.9v-.83a2.18,2.18,0,0,1-.83.8,2.37,2.37,0,0,1-1.09.24,2.19,2.19,0,0,1-1.71-.84,3.23,3.23,0,0,1-.73-2.22,3.88,3.88,0,0,1,.66-2.26,2.17,2.17,0,0,1,1.89-1A2.07,2.07,0,0,1,118.25,42.51ZM116,47a1.42,1.42,0,0,0,1.3.65,1.34,1.34,0,0,0,1.13-.6,2.82,2.82,0,0,0,.45-1.72,2.52,2.52,0,0,0-.46-1.67,1.45,1.45,0,0,0-1.14-.54,1.5,1.5,0,0,0-1.22.58,2.65,2.65,0,0,0-.46,1.7A3,3,0,0,0,116,47Z"/><path class="cls-2" d="M121,40.11h1v1.13h-1Zm0,2.24h1v5.93h-1Z"/><path class="cls-2" d="M127.58,42.92a3,3,0,0,1,.79,2.25,3.9,3.9,0,0,1-.69,2.38,2.52,2.52,0,0,1-2.16.94,2.44,2.44,0,0,1-1.94-.83,3.29,3.29,0,0,1-.72-2.23,3.53,3.53,0,0,1,.76-2.39,2.53,2.53,0,0,1,2-.89A2.66,2.66,0,0,1,127.58,42.92Zm-.62,4a3.73,3.73,0,0,0,.37-1.68,2.92,2.92,0,0,0-.27-1.35,1.49,1.49,0,0,0-1.44-.83,1.44,1.44,0,0,0-1.32.7,3.33,3.33,0,0,0-.41,1.69A2.85,2.85,0,0,0,124.3,47a1.44,1.44,0,0,0,1.31.64A1.36,1.36,0,0,0,127,46.88Z"/><path class="cls-2" d="M132.33,40.11h1.3l4.08,6.6v-6.6h1v8.17h-1.24l-4.13-6.59v6.59h-1.06Z"/><path class="cls-2" d="M140.14,40.11h1v1.13h-1Zm0,2.24h1v5.93h-1Z"/><path class="cls-2" d="M142.38,42.32h1v.85a2.67,2.67,0,0,1,.9-.75,2.38,2.38,0,0,1,1.05-.23,1.71,1.71,0,0,1,1.71.88,3.08,3.08,0,0,1,.25,1.39v3.82h-1V44.53a2,2,0,0,0-.16-.88,1,1,0,0,0-1-.56,2.24,2.24,0,0,0-.58.07,1.53,1.53,0,0,0-.73.49,1.57,1.57,0,0,0-.32.61,4.07,4.07,0,0,0-.08.9v3.12h-1Z"/><path class="cls-2" d="M152.11,42.49a2.15,2.15,0,0,1,.9.77,2.71,2.71,0,0,1,.4,1.05,6.74,6.74,0,0,1,.09,1.31h-4.33a2.63,2.63,0,0,0,.42,1.46,1.42,1.42,0,0,0,1.23.55,1.6,1.6,0,0,0,1.24-.52,1.69,1.69,0,0,0,.37-.7h1a2.31,2.31,0,0,1-.26.73,2.7,2.7,0,0,1-.49.66,2.31,2.31,0,0,1-1.12.6,3.35,3.35,0,0,1-.81.09,2.49,2.49,0,0,1-1.88-.81,3.17,3.17,0,0,1-.77-2.27,3.44,3.44,0,0,1,.78-2.33,2.55,2.55,0,0,1,2-.89A2.65,2.65,0,0,1,152.11,42.49Zm.36,2.34a2.49,2.49,0,0,0-.28-1,1.43,1.43,0,0,0-1.36-.73,1.51,1.51,0,0,0-1.15.5,1.88,1.88,0,0,0-.49,1.27Z"/><path class="cls-4" d="M85.74,15.4c-2.33-2.46-.58-6.92,1.4-10.26-2.42,3-6,6.29-9.09,5-2.7-1.16-3.36-4-3.19-7.59l-3.1,11.23A18.44,18.44,0,0,1,76,14.82a16.34,16.34,0,0,1,5.57,3.62,15.83,15.83,0,0,1,3,4.15L94,15.67C90.69,17.12,87.77,17.51,85.74,15.4Zm-.54,4C81.22,13.83,74.49,12,74.49,12l.41-1.5a6.85,6.85,0,0,0,2.3,1.56,6.43,6.43,0,0,0,5.26-.16,6.37,6.37,0,0,0,1.72,5,6.67,6.67,0,0,0,2.27,1.59Z"/><path class="cls-4" d="M83.18,26.88A16,16,0,0,0,74,17.66a19.37,19.37,0,0,0-7.18-1.29H58a18.7,18.7,0,0,0-7,1.25,16.45,16.45,0,0,0-5.55,3.6,16,16,0,0,0-3.68,5.59,19.29,19.29,0,0,0-1.26,5.71h0c0,.51-.06,1-.06,1.56a19.82,19.82,0,0,0,1.32,7.3A17.19,17.19,0,0,0,58,52.51H65.7l-6.19,6.26h8.94l9.25-10,0,0c.27-.22.54-.44.8-.67l.29-.28c.22-.2.44-.39.65-.61a17.57,17.57,0,0,0,3.68-5.84,20,20,0,0,0,1.32-7.3,19.23,19.23,0,0,0-.72-5.44C83.59,28,83.4,27.46,83.18,26.88ZM49.93,26a10.4,10.4,0,0,1,3.55-2.41A11.52,11.52,0,0,1,58,22.7h8.79a11.77,11.77,0,0,1,4.58.87,10.65,10.65,0,0,1,6,6.11,15.24,15.24,0,0,1,.61,2.17A.7.7,0,0,0,78,32c0,.1,0,.21,0,.31,0,.29.09.58.11.87a11.72,11.72,0,0,1,0,1.19c0,.4,0,.8,0,1.2h0a.59.59,0,0,0,0,.13,15.3,15.3,0,0,1-.4,2.21v0a.24.24,0,0,0,0,.08c-.11.36-.22.72-.35,1.07a10.87,10.87,0,0,1-6,6.22,11.43,11.43,0,0,1-4.58.89H58a11,11,0,0,1-4.5-.89,10.68,10.68,0,0,1-3.55-2.46,11.22,11.22,0,0,1-2.34-3.76,12.83,12.83,0,0,1-.84-4.71,12.62,12.62,0,0,1,.84-4.71A11,11,0,0,1,49.93,26Z"/><path class="cls-1" d="M85.74,15.4c-2.33-2.46-.58-6.92,1.4-10.26-2.42,3-6,6.29-9.09,5-2.7-1.16-3.36-4-3.19-7.59l-3.1,11.23A18.44,18.44,0,0,1,76,14.82a16.34,16.34,0,0,1,5.57,3.62,15.83,15.83,0,0,1,3,4.15L94,15.67C90.69,17.12,87.77,17.51,85.74,15.4Zm-.54,4C81.22,13.83,74.49,12,74.49,12l.41-1.5a6.85,6.85,0,0,0,2.3,1.56,6.43,6.43,0,0,0,5.26-.16,6.37,6.37,0,0,0,1.72,5,6.67,6.67,0,0,0,2.27,1.59Z"/><path class="cls-1" d="M83.18,26.88A16,16,0,0,0,74,17.66a19.37,19.37,0,0,0-7.18-1.29H58a18.7,18.7,0,0,0-7,1.25,16.45,16.45,0,0,0-5.55,3.6,16,16,0,0,0-3.68,5.59,19.29,19.29,0,0,0-1.26,5.71h0c0,.51-.06,1-.06,1.56a19.82,19.82,0,0,0,1.32,7.3A17.19,17.19,0,0,0,58,52.51H65.7l-6.19,6.26h8.94l9.25-10,0,0c.27-.22.54-.44.8-.67l.29-.28c.22-.2.44-.39.65-.61a17.57,17.57,0,0,0,3.68-5.84,20,20,0,0,0,1.32-7.3,19.23,19.23,0,0,0-.72-5.44C83.59,28,83.4,27.46,83.18,26.88ZM49.93,26a10.4,10.4,0,0,1,3.55-2.41A11.52,11.52,0,0,1,58,22.7h8.79a11.77,11.77,0,0,1,4.58.87,10.65,10.65,0,0,1,6,6.11,15.24,15.24,0,0,1,.61,2.17A.7.7,0,0,0,78,32c0,.1,0,.21,0,.31,0,.29.09.58.11.87a11.72,11.72,0,0,1,0,1.19c0,.4,0,.8,0,1.2h0a.59.59,0,0,0,0,.13,15.3,15.3,0,0,1-.4,2.21v0a.24.24,0,0,0,0,.08c-.11.36-.22.72-.35,1.07a10.87,10.87,0,0,1-6,6.22,11.43,11.43,0,0,1-4.58.89H58a11,11,0,0,1-4.5-.89,10.68,10.68,0,0,1-3.55-2.46,11.22,11.22,0,0,1-2.34-3.76,12.83,12.83,0,0,1-.84-4.71,12.62,12.62,0,0,1,.84-4.71A11,11,0,0,1,49.93,26Z"/><path class="cls-5" d="M97.15,25.94H98l1,5.58h0l1-5.58h1l1,5.58h0l1-5.58h.85l-1.41,6.83h-1l-.94-5.53h0l-1,5.53h-1Z"/><path class="cls-5" d="M104.91,30.3c0,.78,0,2,1,2,.76,0,.87-.8.87-1.19h.8a1.74,1.74,0,0,1-1.72,1.82c-1.25,0-1.78-.87-1.78-2.63,0-1.28.25-2.76,1.83-2.76s1.71,1.37,1.71,2.46v.33Zm1.86-.63v-.28c0-.57-.19-1.25-.89-1.25s-.94,1-.94,1.34v.19Z"/><path class="cls-5" d="M108.39,25.94h.81v2.28h0a1.27,1.27,0,0,1,1.19-.71c1.39,0,1.56,1.62,1.56,2.69,0,1.45-.49,2.7-1.67,2.7a1.15,1.15,0,0,1-1.11-.76h0v.63h-.77Zm1.79,6.27c.75,0,.94-.84.94-2s-.19-2-.94-2-1,1-1,2S109.32,32.21,110.18,32.21Z"/><path class="cls-5" d="M114.92,29.14c0-.65-.17-1-.75-1a.74.74,0,0,0-.83.78c0,.61.63.72,1.26.93s1.25.43,1.25,1.44a1.5,1.5,0,0,1-1.65,1.61,1.57,1.57,0,0,1-1.76-1.82h.8c0,.63.17,1.19,1,1.19a.8.8,0,0,0,.85-.85c0-.69-.63-.83-1.25-1s-1.27-.4-1.27-1.46.75-1.41,1.64-1.41c1.49,0,1.55,1,1.56,1.63Z"/><path class="cls-5" d="M116.57,25.94h.8v.92h-.8Zm0,1.7h.8v5.13h-.8Z"/><path class="cls-5" d="M118.62,26.15h.8v1.49h.89v.63h-.89v3.29c0,.41.1.58.53.58a2.38,2.38,0,0,0,.35,0v.66a3.61,3.61,0,0,1-.65,0c-.83,0-1-.34-1-1V28.27h-.75v-.63h.75Z"/><path class="cls-5" d="M121.43,30.3c0,.78,0,2,1,2,.77,0,.87-.8.87-1.19h.81a1.74,1.74,0,0,1-1.72,1.82c-1.26,0-1.78-.87-1.78-2.63,0-1.28.25-2.76,1.82-2.76s1.72,1.37,1.72,2.46v.33Zm1.85-.63v-.28c0-.57-.18-1.25-.89-1.25s-.93,1-.93,1.34v.19Z"/><path class="cls-5" d="M127.29,27.93h.88v1h-.88Zm0,3.82h.88v1h-.88Z"/><path class="cls-5" d="M131.16,25.94h.8v2.28h0a1.47,1.47,0,0,1,1.23-.71c1.32,0,1.32,1,1.32,1.62v3.64h-.8V29.23c0-.39,0-1-.76-1a1,1,0,0,0-1,1v3.54h-.8Z"/><path class="cls-5" d="M135.73,26.15h.8v1.49h.89v.63h-.89v3.29c0,.41.11.58.53.58a2.38,2.38,0,0,0,.35,0v.66a3.61,3.61,0,0,1-.65,0c-.83,0-1-.34-1-1V28.27H135v-.63h.75Z"/><path class="cls-5" d="M138.11,26.15h.8v1.49h.89v.63h-.89v3.29c0,.41.11.58.53.58a2.25,2.25,0,0,0,.35,0v.66a3.43,3.43,0,0,1-.65,0c-.83,0-1-.34-1-1V28.27h-.75v-.63h.75Z"/><path class="cls-5" d="M140.25,27.64H141v.63h0a1.17,1.17,0,0,1,1.11-.76c1.22,0,1.68,1.08,1.68,2.6,0,1.17-.35,2.79-1.68,2.79a1.17,1.17,0,0,1-1.07-.72h0v2.27h-.8ZM142,32.21c.74,0,.94-.78.94-2.1,0-1.13-.2-1.91-.94-1.91s-1,.84-1,2C141,31.2,141.18,32.21,142,32.21Z"/><path class="cls-5" d="M144.76,27.93h.88v1h-.88Zm0,3.82h.88v1h-.88Z"/><path class="cls-5" d="M148.38,25.81H149l-2.22,7.09h-.63Z"/><path class="cls-5" d="M150.94,25.81h.63l-2.21,7.09h-.64Z"/><path class="cls-5" d="M151.48,27.64h.84l.82,4.19h0l.87-4.19H155l.85,4.19h0l.79-4.19h.84l-1.21,5.13h-.88l-.9-4.19h0l-.86,4.19h-.94Z"/><path class="cls-5" d="M157.58,27.64h.84l.82,4.19h0l.87-4.19h1l.85,4.19h0l.79-4.19h.85l-1.22,5.13h-.88l-.9-4.19h0l-.86,4.19h-.93Z"/><path class="cls-5" d="M163.68,27.64h.84l.83,4.19h0l.87-4.19h.94l.85,4.19h0l.8-4.19h.84l-1.22,5.13h-.88l-.9-4.19h0l-.86,4.19h-.94Z"/><path class="cls-5" d="M170,31.75h.88v1H170Z"/><path class="cls-5" d="M174.26,29.14c0-.65-.17-1-.75-1a.74.74,0,0,0-.84.78c0,.61.63.72,1.27.93s1.25.43,1.25,1.44a1.51,1.51,0,0,1-1.66,1.61,1.57,1.57,0,0,1-1.76-1.82h.81c0,.63.17,1.19.95,1.19a.8.8,0,0,0,.85-.85c0-.69-.63-.83-1.25-1s-1.26-.4-1.26-1.46.75-1.41,1.64-1.41c1.49,0,1.54,1,1.55,1.63Z"/><path class="cls-5" d="M176.1,26.15h.8v1.49h.89v.63h-.89v3.29c0,.41.11.58.53.58a2.38,2.38,0,0,0,.35,0v.66a3.43,3.43,0,0,1-.65,0c-.83,0-1-.34-1-1V28.27h-.75v-.63h.75Z"/><path class="cls-5" d="M181.62,32.77h-.77v-.61h0a1.36,1.36,0,0,1-1.24.74c-1.35,0-1.35-1-1.35-1.62V27.64h.8v3.54c0,.39,0,1,.76,1a1,1,0,0,0,1-1V27.64h.81Z"/><path class="cls-5" d="M186,32.77h-.77v-.63h0a1.15,1.15,0,0,1-1.11.76c-1.21,0-1.67-1.08-1.67-2.7,0-1.07.17-2.69,1.62-2.69a1.25,1.25,0,0,1,1.13.71h0V25.94H186Zm-1.79-.56c.89,0,1-.84,1-2,0-1-.17-2-1-2s-.94.78-.94,2S183.41,32.21,184.16,32.21Z"/><path class="cls-5" d="M187,25.94h.8v.92H187Zm0,1.7h.8v5.13H187Z"/><path class="cls-5" d="M190.36,27.51c1.48,0,1.84,1.25,1.84,2.69s-.37,2.7-1.84,2.7-1.85-1.25-1.85-2.7S188.88,27.51,190.36,27.51Zm1,2.69c0-1.1-.16-2.06-1-2.06s-1,1-1,2.06.16,2.07,1,2.07S191.36,31.31,191.36,30.2Z"/><path class="cls-5" d="M193.71,31.28a.89.89,0,0,0,.89,1c1.13,0,1.2-1.69,1.2-2V29.7h0a1.47,1.47,0,0,1-1.29.75c-1.18,0-1.77-.87-1.77-2.14s.65-2.31,1.91-2.31c1.88,0,2,1.81,2,3.21s-.1,3.69-2.06,3.69a1.58,1.58,0,0,1-1.71-1.62Zm.92-4.65c-.84,0-1.07.85-1.07,1.57s.17,1.56,1.07,1.56,1.07-.85,1.07-1.56S195.47,26.63,194.63,26.63Z"/><path class="cls-5" d="M197.59,31.75h.88v1h-.88Z"/><path class="cls-5" d="M202,29.2c0-.5-.2-1.06-.81-1.06s-1,.25-1,2.12c0,.67,0,2,1,2,.69,0,.84-.73.84-1.28h.81a1.72,1.72,0,0,1-1.69,1.91c-1.25,0-1.77-.87-1.77-2.63,0-1.28.24-2.76,1.82-2.76a1.54,1.54,0,0,1,1.64,1.69Z"/><path class="cls-5" d="M205.18,27.51c1.48,0,1.85,1.25,1.85,2.69s-.38,2.7-1.85,2.7-1.84-1.25-1.84-2.7S203.71,27.51,205.18,27.51Zm1,2.69c0-1.1-.17-2.06-1-2.06s-1,1-1,2.06.16,2.07,1,2.07S206.19,31.31,206.19,30.2Z"/><path class="cls-5" d="M97,16.88h1l1,4h0l1-4h1.05v5h-.62v-4.4h0l-1.11,4.4h-.62l-1.12-4.4h0v4.4H97Z"/><path class="cls-5" d="M103,18c1.09,0,1.36.92,1.36,2s-.28,2-1.36,2-1.37-.93-1.37-2S102,18,103,18Zm.74,2c0-.82-.12-1.53-.76-1.53s-.72.71-.72,1.53.12,1.52.72,1.52S103.78,20.85,103.78,20Z"/><path class="cls-5" d="M104.92,18.14h.59v.56h0c.17-.36.39-.66.81-.66a.64.64,0,0,1,.27,0v.58a1.42,1.42,0,0,0-.32,0,.84.84,0,0,0-.78.9v2.39h-.59Z"/><path class="cls-5" d="M107.43,20.1c0,.58,0,1.45.73,1.45.56,0,.64-.59.64-.87h.59A1.28,1.28,0,0,1,108.12,22c-.92,0-1.31-.64-1.31-1.94,0-.95.18-2,1.35-2s1.26,1,1.26,1.82v.24Zm1.37-.47v-.2c0-.42-.14-.93-.66-.93s-.69.77-.69,1v.14Z"/><path class="cls-5" d="M111.64,16.88h.62v5h-.62Z"/><path class="cls-5" d="M113,18.14h.56v.44h0a1,1,0,0,1,.91-.54c1,0,1,.75,1,1.2v2.68h-.59V19.31c0-.29,0-.76-.56-.76a.73.73,0,0,0-.75.76v2.61H113Z"/><path class="cls-5" d="M116.36,18.6h-.55v-.46h.55v-.45c0-.57.25-.86.82-.86h.43v.5h-.28c-.25,0-.38.1-.38.36v.45h.65v.46H117v3.32h-.59Z"/><path class="cls-5" d="M119.12,18c1.09,0,1.36.92,1.36,2s-.27,2-1.36,2-1.36-.93-1.36-2S118,18,119.12,18Zm.74,2c0-.82-.12-1.53-.75-1.53s-.73.71-.73,1.53.12,1.52.73,1.52S119.86,20.85,119.86,20Z"/><path class="cls-5" d="M121,18.14h.6v.56h0c.17-.36.39-.66.82-.66a.59.59,0,0,1,.26,0v.58a1.42,1.42,0,0,0-.32,0,.84.84,0,0,0-.77.9v2.39H121Z"/><path class="cls-5" d="M123.08,18.14h.56v.44h0a1,1,0,0,1,.91-.54.74.74,0,0,1,.82.6,1.06,1.06,0,0,1,.9-.6c1,0,1,.75,1,1.2v2.68h-.59V19.31c0-.29,0-.76-.51-.76a.7.7,0,0,0-.71.76v2.61h-.59V19.31c0-.29,0-.76-.51-.76a.69.69,0,0,0-.7.76v2.61h-.59Z"/><path class="cls-5" d="M128,19.28c0-.86.37-1.24,1.27-1.24,1.15,0,1.15.69,1.15,1.09v2.1c0,.16,0,.31.18.31a.19.19,0,0,0,.14,0v.43s-.19,0-.34,0-.51,0-.54-.49h0a1.08,1.08,0,0,1-.91.55c-.71,0-1-.43-1-1.1a1,1,0,0,1,.71-1.05l.8-.24c.43-.13.43-.25.43-.57s-.21-.56-.61-.56a.65.65,0,0,0-.65.75v0Zm1.83.58c-.22.23-.74.28-1,.44a.61.61,0,0,0-.29.6c0,.38.13.65.54.65a.77.77,0,0,0,.76-.72Z"/><path class="cls-5" d="M131.35,17h.59v1.1h.66v.46h-.66V21c0,.3.08.42.39.42a1.42,1.42,0,0,0,.26,0v.49a3,3,0,0,1-.48,0c-.61,0-.76-.25-.76-.75V18.6h-.55v-.46h.55Z"/><path class="cls-5" d="M133,16.88h.59v.68H133Zm0,1.26h.59v3.78H133Z"/><path class="cls-5" d="M135.48,18c1.09,0,1.36.92,1.36,2s-.28,2-1.36,2-1.36-.93-1.36-2S134.39,18,135.48,18Zm.74,2c0-.82-.12-1.53-.76-1.53s-.72.71-.72,1.53.12,1.52.72,1.52S136.22,20.85,136.22,20Z"/><path class="cls-5" d="M137.36,18.14h.56v.44h0a1,1,0,0,1,.92-.54c1,0,1,.75,1,1.2v2.68h-.59V19.31c0-.29,0-.76-.56-.76a.73.73,0,0,0-.75.76v2.61h-.59Z"/><path class="cls-5" d="M142.21,16.88h.6v.68h-.6Zm0,1.26h.6v3.78h-.6Z"/><path class="cls-5" d="M143.55,18.14h.56v.44h0A1,1,0,0,1,145,18c1,0,1,.75,1,1.2v2.68h-.6V19.31c0-.29,0-.76-.55-.76a.73.73,0,0,0-.75.76v2.61h-.59Z"/><path class="cls-5" d="M148.5,18.35h.65v.75h-.65Zm0,2.82h.65v.75h-.65Z"/></svg>
