<svg id="Layer_1" data-name="Layer 1" xmlns="http://www.w3.org/2000/svg" viewBox="0 0 595.28 115.35"><defs><style>.cls-1{fill:#231f20;}.cls-2{fill:#f69e1e;}.cls-3{fill:#ea1d25;}.cls-4{fill:#f26122;}.cls-5{fill:none;}</style></defs><path class="cls-1" d="M40.37,75.78V71.33H59a3.66,3.66,0,0,0,2.68-.91A3.2,3.2,0,0,0,62.61,68a3.09,3.09,0,0,0-.94-2.46A3.93,3.93,0,0,0,59,64.72H47.58a8.71,8.71,0,0,1-3.16-.53A6.88,6.88,0,0,1,42,62.68a6.74,6.74,0,0,1-1.5-2.29A7.85,7.85,0,0,1,40,57.48a8,8,0,0,1,.5-2.86A6,6,0,0,1,42,52.36a6.94,6.94,0,0,1,2.41-1.5,9.2,9.2,0,0,1,3.29-.54H65.49v4.45H47.67a3.08,3.08,0,0,0-2.32.82,3.13,3.13,0,0,0-.83,2.29,3.05,3.05,0,0,0,.83,2.28,3.1,3.1,0,0,0,2.27.82H59a8.2,8.2,0,0,1,5.75,1.82q2,1.82,2,5.54a9.15,9.15,0,0,1-.47,3,6.32,6.32,0,0,1-3.85,3.92,9.33,9.33,0,0,1-3.4.55Z"/><path class="cls-1" d="M75.83,75.78v-21H66.38V50.32H89.57v4.45h-9.4v21Z"/><path class="cls-1" d="M112.1,50.32h4.24V64.54a15.64,15.64,0,0,1-.75,5.13,8.36,8.36,0,0,1-2.36,3.62,10.11,10.11,0,0,1-4.15,2.14,23.73,23.73,0,0,1-6.16.7,23.41,23.41,0,0,1-6.13-.7,10.35,10.35,0,0,1-4.15-2.14,8.42,8.42,0,0,1-2.36-3.62,15.7,15.7,0,0,1-.75-5.14V50.31H94V64.53a10.16,10.16,0,0,0,.47,3.29A4.89,4.89,0,0,0,96,70.06a6.55,6.55,0,0,0,2.78,1.28,23.19,23.19,0,0,0,8.63,0,6.55,6.55,0,0,0,2.78-1.28,4.89,4.89,0,0,0,1.5-2.24,10.15,10.15,0,0,0,.46-3.29Z"/><path class="cls-1" d="M117.71,75.78V50.31h14.37a12.59,12.59,0,0,1,4.85.91,11.26,11.26,0,0,1,3.83,2.56,11.83,11.83,0,0,1,2.51,3.94,13.69,13.69,0,0,1,.93,5.07,14.38,14.38,0,0,1-.91,5.15,12.39,12.39,0,0,1-2.51,4.1,11.62,11.62,0,0,1-8.67,3.73Zm14.37-4.45A7.51,7.51,0,0,0,137.62,69a7.89,7.89,0,0,0,1.65-2.64,9.49,9.49,0,0,0,.58-3.33,9.35,9.35,0,0,0-.58-3.31,7.77,7.77,0,0,0-1.65-2.61,7.24,7.24,0,0,0-2.46-1.7,7.81,7.81,0,0,0-3.09-.61H122V71.33Z"/><path class="cls-1" d="M145.43,75.78V50.31h4.34V75.78Z"/><path class="cls-2" d="M200.69,49.07c-1.64-1.73-.41-4.86,1-7.21-1.71,2.13-4.19,4.42-6.4,3.48-1.89-.82-2.36-2.81-2.24-5.34l-2.18,7.9a12.26,12.26,0,0,1,3,.77,11.19,11.19,0,0,1,6,5.46l6.66-4.87C204.17,50.28,202.11,50.56,200.69,49.07Zm-.38,2.82a15,15,0,0,0-7.53-5.19l.29-1.06a4.76,4.76,0,0,0,1.61,1.1,4.5,4.5,0,0,0,3.7-.11,4.55,4.55,0,0,0,1.21,3.5,4.83,4.83,0,0,0,1.6,1.12Z"/><path class="cls-2" d="M181.17,75.17a12.11,12.11,0,0,1-11.42-7.84,14.07,14.07,0,0,1-.91-5.14,13.71,13.71,0,0,1,.93-5.1,11.34,11.34,0,0,1,6.49-6.46,13.08,13.08,0,0,1,4.91-.87h6.18a13.59,13.59,0,0,1,5.05.9,11.25,11.25,0,0,1,6.49,6.49,13.6,13.6,0,0,1,.91,5.05,14.09,14.09,0,0,1-.93,5.14,12.13,12.13,0,0,1-11.52,7.83Zm6.18-4.44a8.25,8.25,0,0,0,3.22-.63,7.65,7.65,0,0,0,4.2-4.37,9.24,9.24,0,0,0,.59-3.33,9,9,0,0,0-.59-3.28,7.47,7.47,0,0,0-4.2-4.3,8.24,8.24,0,0,0-3.22-.62h-6.18a8,8,0,0,0-3.17.62,7.19,7.19,0,0,0-2.49,1.69,7.68,7.68,0,0,0-1.65,2.59,9,9,0,0,0-.59,3.32,9.19,9.19,0,0,0,.59,3.32,7.89,7.89,0,0,0,1.65,2.64A7.44,7.44,0,0,0,178,70.11a7.84,7.84,0,0,0,3.17.63Z"/><path class="cls-3" d="M181.62,56.89a12.35,12.35,0,0,0-1.45-2.64,7.69,7.69,0,0,0-2.17.55,7.55,7.55,0,0,0-2.2,1.42l0,0a7.5,7.5,0,0,1,1.66,2.6,9,9,0,0,1,.6,3.28,9.16,9.16,0,0,1-.6,3.32,7.57,7.57,0,0,1-4.19,4.37,8.11,8.11,0,0,1-3.22.63h-6.17a7.82,7.82,0,0,1-3.16-.63,7.44,7.44,0,0,1-2.49-1.73,7.89,7.89,0,0,1-1.65-2.64,9.19,9.19,0,0,1-.59-3.32,8.92,8.92,0,0,1,.57-3.28,7.74,7.74,0,0,1,1.65-2.59,7.19,7.19,0,0,1,2.49-1.69A8,8,0,0,1,163.9,54h6.18a8.75,8.75,0,0,1,1.44.12A11.28,11.28,0,0,1,176,50.78c-.27-.12-.54-.25-.82-.36a13.65,13.65,0,0,0-5-.92h-6.17a13.24,13.24,0,0,0-4.93.89,11.7,11.7,0,0,0-3.91,2.51,11.23,11.23,0,0,0-2.58,3.94,13.44,13.44,0,0,0-.93,5.1,14,14,0,0,0,.92,5.12,12.08,12.08,0,0,0,11.43,7.85h6.17a12.23,12.23,0,0,0,5-1,12,12,0,0,0,6.53-6.85,14.09,14.09,0,0,0,.93-5.14A13.53,13.53,0,0,0,181.62,56.89Z"/><path class="cls-4" d="M171.53,54.06a7.89,7.89,0,0,1,1.77.49,7.71,7.71,0,0,1,2.51,1.67A7.42,7.42,0,0,1,178,54.8a7.71,7.71,0,0,1,2.16-.55,10.41,10.41,0,0,0-1.1-1.29A11.34,11.34,0,0,0,176,50.77a11.44,11.44,0,0,0-3.6,2.39A7.74,7.74,0,0,0,171.53,54.06Z"/><path class="cls-2" d="M198.89,57.15a11.23,11.23,0,0,0-6.48-6.49,13.64,13.64,0,0,0-5-.91H186.1a20,20,0,0,0,.1,4.44h1.16a8.49,8.49,0,0,1,3.22.61,7.51,7.51,0,0,1,4.19,4.3,9.57,9.57,0,0,1,0,6.63,7.63,7.63,0,0,1-4.19,4.37,8.29,8.29,0,0,1-3.22.63h-6.19A8,8,0,0,1,178,70.1a7.59,7.59,0,0,1-2.49-1.73,8,8,0,0,1-1.65-2.64,9.21,9.21,0,0,1-.59-3.33V62c-1.46-.36-2.93-.68-4.41-.93,0,.35,0,.71,0,1.09a13.92,13.92,0,0,0,.93,5.14,12.09,12.09,0,0,0,11.42,7.83h5.43l-4.36,4.4h6.3l6.5-7a11.74,11.74,0,0,0,1.23-1.11,12.16,12.16,0,0,0,2.58-4.11,13.88,13.88,0,0,0,.93-5.14A13.37,13.37,0,0,0,198.89,57.15Z"/><path class="cls-1" d="M41.06,90.57s0,0,.07,0h.27c.05,0,.07,0,.07,0v4.59a.06.06,0,0,1-.07.06h-.27c-.05,0-.07,0-.07-.06Z"/><path class="cls-1" d="M42.19,91.76a.05.05,0,0,1,.06-.05h.25s.07,0,.07.05v.52a1.31,1.31,0,0,1,1.11-.63c.65,0,1,.43,1,1.13v2.38a.06.06,0,0,1-.06.06h-.27a.06.06,0,0,1-.06,0h0V92.92a1.33,1.33,0,0,0-.15-.68.59.59,0,0,0-.54-.24,1,1,0,0,0-.57.22,1.36,1.36,0,0,0-.42.5v2.45s0,.06-.08.06h-.25s-.06,0-.06-.06Z"/><path class="cls-1" d="M45.1,93a1.47,1.47,0,0,1,.33-1,1.1,1.1,0,0,1,.85-.37,1.21,1.21,0,0,1,.64.15,1,1,0,0,1,.38.37V90.45s0-.06.07-.06h.26s.07,0,.07.06v4.71a.06.06,0,0,1-.07.06h-.25s-.07,0-.07-.06v-.43a1.13,1.13,0,0,1-1,.55,1.24,1.24,0,0,1-.86-.34,1.35,1.35,0,0,1-.32-1Zm.4.9c0,.7.35,1,.92,1a.91.91,0,0,0,.64-.27.85.85,0,0,0,.26-.62V92.92a.86.86,0,0,0-.28-.67,1,1,0,0,0-.67-.26c-.53,0-.86.38-.86,1.09Z"/><path class="cls-1" d="M48.3,91.76s0-.05.07-.05h.26s.07,0,.07.05v2.46c0,.45.23.71.59.71a1.4,1.4,0,0,0,1.09-.6V91.76s0-.05.07-.05h.25s.07,0,.07.05v3.43a.06.06,0,0,1-.07.06h-.23s-.08,0-.08-.06v-.48a1.49,1.49,0,0,1-1.18.59c-.57,0-.91-.37-.91-1Z"/><path class="cls-1" d="M51.18,94.44s0-.07.06-.08h0l.21-.06s.07,0,.08,0l0,0a.72.72,0,0,0,.77.6.78.78,0,0,0,.53-.17.6.6,0,0,0,.2-.43.53.53,0,0,0-.19-.44,1.16,1.16,0,0,0-.43-.25l-.52-.2a1.45,1.45,0,0,1-.45-.33.9.9,0,0,1,.12-1.21,1.25,1.25,0,0,1,1.46,0,.94.94,0,0,1,.36.55s0,.1,0,.1l-.21.06a.08.08,0,0,1-.09,0h0a.68.68,0,0,0-.73-.53c-.4,0-.66.2-.66.56a.43.43,0,0,0,.18.39,1.45,1.45,0,0,0,.44.24,4.71,4.71,0,0,1,.52.21,1,1,0,0,1,.44.34,1,1,0,0,1-.13,1.27,1.1,1.1,0,0,1-.79.26,1.36,1.36,0,0,1-.74-.19,1,1,0,0,1-.39-.6.06.06,0,0,1,0-.09Z"/><path class="cls-1" d="M53.42,91.9s0-.07.06-.07h.46V91s0-.07.07-.07h.25s.06,0,.07,0v.86H55s0,0,0,.07v.18s0,.07,0,.07h-.69v2.14a.54.54,0,0,0,.12.46.62.62,0,0,0,.41.12h.23s.07,0,.07.07v.19c0,.07,0,.09-.09.09h-.19a1.1,1.1,0,0,1-.72-.2,1.07,1.07,0,0,1-.21-.77V92.19h-.47s-.06,0-.06-.07Z"/><path class="cls-1" d="M55.6,91.76s0-.05.07-.05h.24c.05,0,.08,0,.08.06v.69a1.37,1.37,0,0,1,.44-.57,1,1,0,0,1,.62-.24c.08,0,.1,0,.09.09V92a.1.1,0,0,1-.07.08h-.13a1,1,0,0,0-.59.27,1.15,1.15,0,0,0-.32.53v2.28s0,.06-.08.06H55.7s-.07,0-.07-.06Z"/><path class="cls-1" d="M57.31,90.48s0-.09.08-.09h.22a.08.08,0,0,1,.09.08h0v.6a.1.1,0,0,1-.07.09h-.25s-.08,0-.08-.08Zm0,1.32c0-.06,0-.1.09-.09h.21a.06.06,0,0,1,.08.05h0v3.36a.1.1,0,0,1-.07.09h-.25a.1.1,0,0,1-.09-.07v0Z"/><path class="cls-1" d="M58.17,94.24a.85.85,0,0,1,.46-.86,2.91,2.91,0,0,1,1.21-.2h.37v-.24c0-.65-.25-1-.76-1a.78.78,0,0,0-.77.59c0,.06,0,.06-.1,0l-.18-.09a.08.08,0,0,1,0-.11h0a1.12,1.12,0,0,1,1.12-.76c.75,0,1.14.46,1.14,1.29v2.22s0,.06-.08.06H60.3c-.06,0-.09,0-.08-.06v-.34a1.43,1.43,0,0,1-1,.45,1,1,0,0,1-1-.93v-.11Zm.39,0a.63.63,0,0,0,.19.48.68.68,0,0,0,.5.19,1.27,1.27,0,0,0,1-.45v-1h-.33a3,3,0,0,0-1,.14.55.55,0,0,0-.37.59Z"/><path class="cls-1" d="M61.14,90.48s0-.09.07-.09h.23c.06,0,.09,0,.09.1v4.64a.07.07,0,0,1-.05.09h-.27c-.05,0-.07,0-.07-.09Z"/><path class="cls-1" d="M61.85,95.81v-.09a.86.86,0,0,0,.24-.46,4.25,4.25,0,0,0,.06-.8.06.06,0,0,1,.06-.06h.23a.06.06,0,0,1,.06.06A1.93,1.93,0,0,1,62,95.89a.07.07,0,0,1-.09,0h0Z"/><path class="cls-1" d="M64.06,90.52h1.28a1.31,1.31,0,0,1,1,.34,1.41,1.41,0,0,1,.32,1V92a1.45,1.45,0,0,1-.32,1,1.35,1.35,0,0,1-1,.34h-.86v1.82a.06.06,0,0,1-.06.06h-.26s-.06,0-.06,0,0,0,0,0ZM64.47,93h.86a1,1,0,0,0,.75-.24,1.05,1.05,0,0,0,.21-.75v-.15a.84.84,0,0,0-.73-1H64.47Z"/><path class="cls-1" d="M67.12,91.76s0-.05.07-.05h.24s.07,0,.07.06v.69a1.48,1.48,0,0,1,.45-.57,1,1,0,0,1,.63-.24c.07,0,.08,0,.08.09V92a.11.11,0,0,1-.07.08h-.16a1,1,0,0,0-.58.27,1.26,1.26,0,0,0-.32.53v2.28s0,.06-.08.06h-.24s-.08,0-.08-.06Z"/><path class="cls-1" d="M68.66,93a1.22,1.22,0,0,1,1.12-1.32,1.47,1.47,0,0,1,.21,0,1.22,1.22,0,0,1,1.34,1.08V94a1.34,1.34,0,0,1-2.67,0h0Zm.39,1c0,.68.32,1,.94,1s.94-.34.94-1V93c0-.69-.31-1-.94-1s-.94.35-.94,1Z"/><path class="cls-1" d="M71.69,93A1.41,1.41,0,0,1,72,92a1.12,1.12,0,0,1,.86-.37,1.17,1.17,0,0,1,.63.15,1,1,0,0,1,.39.37V90.45s0-.06.07-.06h.25c.05,0,.07,0,.07.06v4.71a.06.06,0,0,1-.07.06H74s-.07,0-.06-.06v-.43a1.22,1.22,0,0,1-1.86.21,1.41,1.41,0,0,1-.34-1Zm.39.9c0,.7.35,1,.93,1a.83.83,0,0,0,.63-.27A.85.85,0,0,0,73.9,94V92.92a.88.88,0,0,0-.27-.67A1,1,0,0,0,73,92c-.53,0-.85.38-.85,1.09Z"/><path class="cls-1" d="M74.88,91.76s0-.05.07-.05h.26s.07,0,.07.05v2.46c0,.45.23.71.6.71a1.38,1.38,0,0,0,1.08-.6V91.76s0-.05.07-.05h.25s.08,0,.07.05v3.43a.06.06,0,0,1-.07.06H77c-.05,0-.08,0-.08-.06v-.48a1.45,1.45,0,0,1-1.17.59c-.57,0-.91-.37-.91-1Z"/><path class="cls-1" d="M77.85,93a1.27,1.27,0,0,1,.35-1,1.3,1.3,0,0,1,.92-.34,1.2,1.2,0,0,1,.74.22,1.16,1.16,0,0,1,.4.62h0a.11.11,0,0,1-.06.09l-.22.06s-.08,0-.09-.06a.73.73,0,0,0-.25-.43.75.75,0,0,0-.53-.18.78.78,0,0,0-.65.26,1.13,1.13,0,0,0-.24.77v.86c0,.68.33,1,.86,1a.74.74,0,0,0,.81-.53c0-.07,0-.09.13-.06l.15.09a.08.08,0,0,1,0,.08v0a1.09,1.09,0,0,1-1.16.74,1.21,1.21,0,0,1-.86-.35,1.38,1.38,0,0,1-.34-1Z"/><path class="cls-1" d="M80.28,91.9s0-.07.06-.07h.46V91s0-.07.07-.07h.25s.06,0,.07,0v.86h.69s.05,0,.05.07v.18s0,.07-.05.07h-.69v2.14a.46.46,0,0,0,.32.57.45.45,0,0,0,.23,0H82c.06,0,.09,0,.09.07v.19c0,.07,0,.1-.1.1h-.22A1.09,1.09,0,0,1,81,95a1,1,0,0,1-.21-.77V92.19h-.46a.06.06,0,0,1-.06-.07Z"/><path class="cls-1" d="M82.12,95.81v-.09a1,1,0,0,0,.24-.46,4.25,4.25,0,0,0,0-.8.06.06,0,0,1,.06-.06h.35a1.9,1.9,0,0,1-.5,1.43.06.06,0,0,1-.08,0h0Z"/><path class="cls-1" d="M83.88,95.14l1.41-4.54a.09.09,0,0,1,.08-.08h.29a.09.09,0,0,1,.08.08l1.41,4.56h-.37a.07.07,0,0,1-.07-.06l-.41-1.39H84.69l-.42,1.39a.09.09,0,0,1-.08.06h-.33Zm.92-1.71h1.4l-.69-2.34Z"/><path class="cls-1" d="M87.38,91.76s0-.05.08-.05h.24s.07,0,.07.06v.69a1.48,1.48,0,0,1,.45-.57,1,1,0,0,1,.63-.24c.07,0,.09,0,.07.09V92a.09.09,0,0,1-.06.08h-.14a1,1,0,0,0-.58.27,1.2,1.2,0,0,0-.32.53v2.28s0,.06-.08.06H87.5c-.06,0-.08,0-.08-.06Z"/><path class="cls-1" d="M89,93a1.33,1.33,0,0,1,.36-1,1.26,1.26,0,0,1,.91-.34,1.25,1.25,0,0,1,.75.22,1.12,1.12,0,0,1,.4.62h0a.11.11,0,0,1-.06.09l-.22.06c-.06,0-.08,0-.1-.06a.64.64,0,0,0-.25-.43.72.72,0,0,0-.53-.18.82.82,0,0,0-.64.26,1.18,1.18,0,0,0-.24.77v.86c0,.68.34,1,.86,1a.74.74,0,0,0,.8-.53c0-.07.07-.09.14-.06l.15.09a.08.08,0,0,1,0,.08v0a1.09,1.09,0,0,1-1.16.74,1.17,1.17,0,0,1-.85-.35,1.4,1.4,0,0,1-.36-1Z"/><path class="cls-1" d="M91.71,90.46s0-.07.06-.07H92a.08.08,0,0,1,.07,0v1.84a1.26,1.26,0,0,1,1.09-.63c.65,0,1,.43,1,1.14v2.38s0,0-.07,0h-.26s-.06,0-.06,0V92.92c0-.64-.22-.92-.69-.92a1,1,0,0,0-.57.22,1.38,1.38,0,0,0-.43.5v2.45s0,.06-.08.06h-.24s-.07,0-.07-.06Z"/><path class="cls-1" d="M94.76,90.48s0-.09.08-.09h.22a.08.08,0,0,1,.08.07s0,0,0,0v.6a.07.07,0,0,1,0,.09h-.25s-.08,0-.08-.08Zm0,1.32c0-.06,0-.1.09-.09h.21a.06.06,0,0,1,.08.05h0v3.36a.07.07,0,0,1,0,.09h-.25s-.08,0-.08-.09Z"/><path class="cls-1" d="M95.41,91.9s0-.07.06-.07h.45V91s0-.07.08-.07h.25s.06,0,.07,0v.86H97s0,0,0,.07v.18s0,.07,0,.07h-.69v2.14a.46.46,0,0,0,.32.57.41.41,0,0,0,.22,0h.22c.06,0,.08,0,.08.07v.19c0,.07,0,.1-.09.1h-.21a1,1,0,0,1-.71-.21,1,1,0,0,1-.23-.77V92.19h-.45s-.06,0-.06-.07Z"/><path class="cls-1" d="M97.41,92.94A1.28,1.28,0,1,1,100,93v.44c0,.09,0,.14-.15.14h-2v.31c0,.62.3,1,.9,1a.87.87,0,0,0,.86-.51c0-.06.06-.07.1,0l.18.09a.07.07,0,0,1,0,.1h0a1.14,1.14,0,0,1-1.19.7,1.29,1.29,0,0,1-1-.36,1.32,1.32,0,0,1-.34-1Zm.4.35h1.77V93c0-.65-.33-1-.86-1a.85.85,0,0,0-.62.26.93.93,0,0,0-.25.71Z"/><path class="cls-1" d="M100.28,93a1.19,1.19,0,0,1,1.26-1.32,1.25,1.25,0,0,1,.75.22,1,1,0,0,1,.4.62h0a.11.11,0,0,1-.06.09l-.21.06s-.09,0-.1-.06a.76.76,0,0,0-.78-.61.83.83,0,0,0-.65.26,1.08,1.08,0,0,0-.24.77v.86c0,.68.33,1,.86,1a.73.73,0,0,0,.8-.53c0-.07.07-.09.14-.06l.16.09a.08.08,0,0,1,0,.08v0a1.1,1.1,0,0,1-1.17.74,1.19,1.19,0,0,1-.85-.35,1.3,1.3,0,0,1-.34-1Z"/><path class="cls-1" d="M102.7,91.9s0-.07,0-.07h.46V91s0-.07.08-.07h.22a.05.05,0,0,1,.07,0v.88h.69s.06,0,.06.07v.18s0,.07-.06.07h-.69v2.14a.63.63,0,0,0,.13.46.57.57,0,0,0,.42.11h.24s.07,0,.07.07v.19c0,.07,0,.1-.09.1h-.21a1,1,0,0,1-.72-.21,1,1,0,0,1-.22-.77V92.19h-.46s-.06,0-.06-.07Z"/><path class="cls-1" d="M104.76,91.76s0-.05.07-.05h.25s.07,0,.07.05v2.46c0,.45.24.71.6.71a1.36,1.36,0,0,0,1.08-.6V91.76s0-.05.08-.05h.25s.07,0,.07.05v3.43a.06.06,0,0,1-.07.06h-.23c-.05,0-.07,0-.07-.06v-.48a1.49,1.49,0,0,1-1.18.59c-.57,0-.91-.37-.91-1Z"/><path class="cls-1" d="M107.88,91.76s0-.05.07-.05h.23s.08,0,.08.06v.69a1.48,1.48,0,0,1,.45-.57,1,1,0,0,1,.63-.24c.07,0,.09,0,.08.09V92a.11.11,0,0,1-.07.08h-.14a1,1,0,0,0-.58.27,1.28,1.28,0,0,0-.33.53v2.28a.06.06,0,0,1-.07.06H108s-.08,0-.08-.06Z"/><path class="cls-1" d="M109.31,94.24a.87.87,0,0,1,.47-.86,3,3,0,0,1,1.21-.2h.37v-.24c0-.65-.25-1-.76-1a.78.78,0,0,0-.77.59c0,.06-.06.06-.11,0l-.18-.09a.08.08,0,0,1-.06-.1.08.08,0,0,1,0,0h0a1.11,1.11,0,0,1,1.12-.76c.76,0,1.14.46,1.14,1.29v2.21s0,.06-.08.06h-.23s-.08,0-.08-.06v-.34a1.42,1.42,0,0,1-1,.46,1.07,1.07,0,0,1-.72-.28,1,1,0,0,1-.29-.73Zm.4,0a.61.61,0,0,0,.19.48.69.69,0,0,0,.51.19,1.3,1.3,0,0,0,1-.45v-1h-.29a3.06,3.06,0,0,0-1,.14.6.6,0,0,0-.36.59Z"/><path class="cls-1" d="M112.33,90.48s0-.09.07-.09h.23c.06,0,.09,0,.09.1v4.64c0,.06,0,.09-.09.09h-.23c-.05,0-.07,0-.07-.09Z"/><path class="cls-1" d="M113.05,95.81v-.09a1,1,0,0,0,.24-.46,4.25,4.25,0,0,0,0-.8s0-.06,0-.06h.3a.05.05,0,0,1,0,.06,1.9,1.9,0,0,1-.5,1.43.06.06,0,0,1-.08,0h0Z"/><path class="cls-1" d="M114.78,95.14l1.41-4.54s0-.08.1-.08h.28s.08,0,.08.08l1.4,4.56h-.36a.07.07,0,0,1-.07-.06l-.42-1.39h-1.61l-.42,1.39a.06.06,0,0,1,0,.06h-.31Zm.92-1.71h1.41l-.69-2.34Z"/><path class="cls-1" d="M118.16,93a1.45,1.45,0,0,1,.32-1,1.12,1.12,0,0,1,.86-.37,1.15,1.15,0,0,1,.63.15,1,1,0,0,1,.4.37V90.45s0-.06.06-.06h.25s.07,0,.07.06v4.71a.06.06,0,0,1-.07.06h-.24s-.07,0-.06-.06v-.43a1.35,1.35,0,0,1-.4.39,1.22,1.22,0,0,1-.62.16,1.2,1.2,0,0,1-.86-.34,1.36,1.36,0,0,1-.33-1Zm.39.9c0,.7.35,1,.94,1a.9.9,0,0,0,.63-.27.85.85,0,0,0,.26-.62V92.92a.86.86,0,0,0-.28-.67,1,1,0,0,0-.67-.26c-.54,0-.86.38-.86,1.09Z"/><path class="cls-1" d="M121,91.78h.36a0,0,0,0,1,.06,0s0,0,0,0l.54,1.79c.12.4.24.86.36,1.31h0l.35-1.33.55-1.77a0,0,0,0,1,0,0h.36l-1.08,3.42a.08.08,0,0,1-.08.06h-.33a.07.07,0,0,1-.07-.06Z"/><path class="cls-1" d="M123.63,92.94A1.25,1.25,0,0,1,124,92a1.37,1.37,0,0,1,1.85,0,1.42,1.42,0,0,1,.35,1v.44c0,.09-.06.14-.16.14h-2v.31c0,.62.29,1,.9,1a.87.87,0,0,0,.86-.51c0-.06.07-.07.11,0l.17.09a.09.09,0,0,1,0,.1h0a1.16,1.16,0,0,1-1.2.7,1.25,1.25,0,0,1-1-.36,1.32,1.32,0,0,1-.35-1Zm.39.35h1.74V93c0-.65-.33-1-.91-1a.85.85,0,0,0-.62.26A.94.94,0,0,0,124,93Z"/><path class="cls-1" d="M126.61,91.76s0-.05.08-.05h.24s.07,0,.07.06v.69a1.4,1.4,0,0,1,.45-.57,1,1,0,0,1,.63-.24c.07,0,.09,0,.07.09V92a.08.08,0,0,1-.07.08H128a1,1,0,0,0-.58.27,1.07,1.07,0,0,0-.32.53v2.28s0,.06-.08.06h-.25s-.07,0-.07-.06Z"/><path class="cls-1" d="M128.08,91.9s0-.07.06-.07h.45V91s0-.07.08-.07h.24s.06,0,.07,0v.86h.7s0,0,0,.07v.18s0,.07,0,.07H129v2.14a.46.46,0,0,0,.32.57.45.45,0,0,0,.23,0h.21c.06,0,.09,0,.09.07v.19c0,.07,0,.1-.09.1h-.23a.8.8,0,0,1-.94-.6.81.81,0,0,1,0-.38V92.19h-.46s-.05,0-.05-.07Z"/><path class="cls-1" d="M130.25,90.48s0-.09.08-.09h.21a.08.08,0,0,1,.09.08h0v.6a.09.09,0,0,1-.07.09h-.23c-.06,0-.08,0-.08-.08Zm0,1.32c0-.06,0-.1.08-.09h.22a.06.06,0,0,1,.07,0h0V95.1a.07.07,0,0,1-.05.09h-.24c-.06,0-.09,0-.09-.08Z"/><path class="cls-1" d="M131,94.44a.08.08,0,0,1,.06-.08l.21-.06a.05.05,0,0,1,.08,0,0,0,0,0,1,0,0,.73.73,0,0,0,.78.6.84.84,0,0,0,.53-.17.6.6,0,0,0,.07-.84l0,0h0a1.34,1.34,0,0,0-.43-.26l-.52-.19a1.25,1.25,0,0,1-.45-.33.91.91,0,0,1,.11-1.21,1.14,1.14,0,0,1,.77-.26,1.13,1.13,0,0,1,.69.21,1,1,0,0,1,.37.56s0,.09-.06.1l-.21,0a.06.06,0,0,1-.09,0h0a.69.69,0,0,0-.72-.53c-.41,0-.67.21-.67.57a.44.44,0,0,0,.18.38,1.48,1.48,0,0,0,.44.25c.18.06.35.13.53.21a1,1,0,0,1,.43.34,1,1,0,0,1-.12,1.27,1.13,1.13,0,0,1-.79.26,1.32,1.32,0,0,1-.75-.2,1,1,0,0,1-.39-.59A.42.42,0,0,1,131,94.44Z"/><path class="cls-1" d="M133.66,90.48a.1.1,0,0,1,.07-.09H134a.1.1,0,0,1,.09.07v.62a.1.1,0,0,1-.07.09h-.23a.08.08,0,0,1-.09-.06v-.63Zm0,1.32c0-.06,0-.1.09-.09H134a.09.09,0,0,1,.09.06v3.36a.1.1,0,0,1-.07.09h-.24c-.05,0-.08,0-.08-.09Z"/><path class="cls-1" d="M134.7,91.76s0-.05.07-.05H135c.05,0,.07,0,.07.05v.52a1.31,1.31,0,0,1,1.11-.63c.65,0,1,.43,1,1.13v2.38a.06.06,0,0,1-.06.06h-.22a.08.08,0,0,1-.07,0h0V92.92a1.23,1.23,0,0,0-.14-.68.6.6,0,0,0-.54-.24,1,1,0,0,0-.58.22,1.36,1.36,0,0,0-.42.5v2.45s0,.06-.07.06h-.25c-.05,0-.07,0-.07-.06Z"/><path class="cls-1" d="M138.14,94.57a.46.46,0,0,1-.3-.58h0a.44.44,0,0,1,.29-.29.93.93,0,0,1-.52-.86h0A1,1,0,0,1,138,92a1.26,1.26,0,0,1,.85-.29,1.4,1.4,0,0,0,1.5,0s.06,0,.06.1V92a.19.19,0,0,1-.14.07h-.46a1,1,0,0,1,.26.71v.09a1,1,0,0,1-.33.77,1.34,1.34,0,0,1-.86.27,1.19,1.19,0,0,1-.46-.06c-.15.06-.22.15-.22.26s.15.23.43.27l.71.12a1.44,1.44,0,0,1,.79.34,1,1,0,0,1,.23.72,1,1,0,0,1-.37.79,1.52,1.52,0,0,1-1.05.31c-.92,0-1.41-.37-1.41-1A1,1,0,0,1,138.14,94.57Zm.76,1.71c.7,0,1-.25,1-.76a.64.64,0,0,0-.14-.48,1,1,0,0,0-.59-.23l-.65-.11h-.11a.86.86,0,0,0-.59.85c0,.53.35.78,1,.78Zm-.07-2.74c.57,0,.86-.25.86-.75a.86.86,0,0,0-1.72,0C138,93.31,138.26,93.54,138.83,93.54Z"/><path class="cls-1" d="M141.74,93a2.27,2.27,0,0,1,.7-.61l-.1-.11-.1-.12a.76.76,0,0,0-.08-.11l-.08-.12c0-.06-.08-.14-.12-.21a1,1,0,0,1-.08-.38.85.85,0,0,1,.27-.65,1.09,1.09,0,0,1,1.55.08h0a1.1,1.1,0,0,1,.24.42s0,.08-.07.09l-.22,0a.07.07,0,0,1-.1,0h0a.67.67,0,0,0-.65-.56.54.54,0,0,0-.45.18.61.61,0,0,0-.17.43.6.6,0,0,0,0,.19v.08a.8.8,0,0,0,.08.16l.06.09.07.08.09.1.09.11.1.12,1.5,1.71a3.23,3.23,0,0,0,.07-.69v-.55c0-.06,0-.09.07-.09h.24c.05,0,.07,0,.07.09v.45a2.71,2.71,0,0,1-.17,1.09l.71.8c0,.06,0,.1,0,.1h-.3a.24.24,0,0,1-.11-.06l-.45-.52a1.67,1.67,0,0,1-1.39.65,1.57,1.57,0,0,1-1.1-.4,1.48,1.48,0,0,1-.14-1.9Zm.5,1.65a1.14,1.14,0,0,0,.79.28,1.23,1.23,0,0,0,1.11-.58l-1.48-1.71a1.26,1.26,0,0,0-.75,1.2,1,1,0,0,0,.33.8Z"/><path class="cls-1" d="M146.62,90.52h2.17a.06.06,0,0,1,.06.07v.22s0,.06-.06.06H147v1.86h1.61c.05,0,.06,0,.06.08V93s0,.07-.06.07H147v2.07a.05.05,0,0,1-.06,0h-.27s-.08,0-.08,0Z"/><path class="cls-1" d="M148.9,93a1.23,1.23,0,0,1,1.33-1.32,1.21,1.21,0,0,1,1.33,1.08h0V94a1.34,1.34,0,0,1-2.67,0h0Zm.39,1c0,.68.32,1,.94,1s1-.34,1-1V93c0-.69-.32-1-1-1s-.94.35-.94,1Z"/><path class="cls-1" d="M151.93,93a1.34,1.34,0,0,1,.35-1,1.29,1.29,0,0,1,1-.35,1.22,1.22,0,0,1,1.34,1.08h0a.89.89,0,0,1,0,.23v1a1.25,1.25,0,0,1-.35,1,1.29,1.29,0,0,1-1,.35,1.25,1.25,0,0,1-1-.32,1.23,1.23,0,0,1-.35-1Zm.39,1c0,.68.32,1,.93,1s.95-.34.95-1V93c0-.69-.31-1-.95-1s-.93.35-.93,1Z"/><path class="cls-1" d="M155,93a1.35,1.35,0,0,1,.32-1,1.25,1.25,0,0,1,1.48-.22,1,1,0,0,1,.4.37V90.45s0-.06.06-.06h.25c.05,0,.07,0,.07.06v4.71a.06.06,0,0,1-.07.06h-.25s-.06,0-.06-.06v-.43a1.13,1.13,0,0,1-1,.55,1.19,1.19,0,0,1-.85-.34,1.36,1.36,0,0,1-.33-1Zm.39.9c0,.7.35,1,.92,1a.85.85,0,0,0,.86-.86V93a.83.83,0,0,0-.27-.66.91.91,0,0,0-.68-.26c-.52,0-.86.37-.86,1.09Z"/><path class="cls-1" d="M159.25,90.52h1.29a1.33,1.33,0,0,1,1,.34,1.46,1.46,0,0,1,.32,1V92a1.52,1.52,0,0,1-.32,1,1.35,1.35,0,0,1-1,.34h-.86v1.82a.06.06,0,0,1-.06.06h-.27c-.05,0-.07,0-.07-.06Zm.42,2.46h.86a1,1,0,0,0,.75-.24,1.05,1.05,0,0,0,.21-.75v-.15a.86.86,0,0,0-.73-1h-1.09Z"/><path class="cls-1" d="M162.32,90.46s0-.07.07-.07h.25a.08.08,0,0,1,.07,0v1.84a1.26,1.26,0,0,1,1.09-.63c.65,0,1,.43,1,1.14v2.38s0,0-.07,0h-.26s-.06,0-.06,0V92.92c0-.64-.22-.92-.69-.92a1,1,0,0,0-.57.22,1.38,1.38,0,0,0-.43.5v2.45s0,.06-.07.06h-.25s-.07,0-.07-.06Z"/><path class="cls-1" d="M165.23,93a1.38,1.38,0,0,1,.36-1,1.29,1.29,0,0,1,1-.35,1.21,1.21,0,0,1,1.33,1.08,1,1,0,0,1,0,.24v1a1.25,1.25,0,0,1-.35,1,1.27,1.27,0,0,1-1,.35,1.31,1.31,0,0,1-1-.34,1.28,1.28,0,0,1-.35-1Zm.4,1c0,.68.31,1,.93,1s.95-.34.95-1V93c0-.69-.32-1-.95-1s-.93.35-.93,1Z"/><path class="cls-1" d="M168,91.9s0-.07.05-.07h.47V91s0-.07.08-.07h.24s.06,0,.07,0v.86h.69a.05.05,0,0,1,.06.06h0v.18a.05.05,0,0,1,0,.07h-.7v2.14a.59.59,0,0,0,.15.46.62.62,0,0,0,.41.12h.22c.06,0,.08,0,.08.07v.19c0,.07,0,.09-.09.09h-.21a1.06,1.06,0,0,1-.71-.2,1,1,0,0,1-.23-.77V92.19h-.45s-.06,0-.06-.07Z"/><path class="cls-1" d="M170,93a1.39,1.39,0,0,1,.36-1,1.32,1.32,0,0,1,1-.35,1.22,1.22,0,0,1,1.34,1.08V94a1.29,1.29,0,0,1-.36,1,1.55,1.55,0,0,1-1.95,0,1.25,1.25,0,0,1-.36-1Zm.4,1c0,.68.32,1,.93,1s.95-.34.95-1V93c0-.69-.32-1-.95-1s-.93.35-.93,1Z"/><path class="cls-1" d="M173.56,94.57a.46.46,0,0,1-.3-.58h0a.44.44,0,0,1,.29-.29.93.93,0,0,1-.52-.86h0a1.06,1.06,0,0,1,.34-.85,1.26,1.26,0,0,1,.85-.29,1.35,1.35,0,0,1,.81.21,1.24,1.24,0,0,1,.7-.22s0,0,0,.1V92s0,.07-.14.07h-.45a1.1,1.1,0,0,1,.26.72v.08a1,1,0,0,1-.34.77,1.38,1.38,0,0,1-.85.28,1.76,1.76,0,0,1-.46-.06c-.15.06-.22.14-.22.25s.15.23.44.28l.7.12a1.36,1.36,0,0,1,.79.33,1,1,0,0,1,.24.73,1,1,0,0,1-.37.78,1.56,1.56,0,0,1-1.06.31c-.92,0-1.41-.37-1.41-1A1,1,0,0,1,173.56,94.57Zm.77,1.71c.69,0,1-.25,1-.76a.64.64,0,0,0-.14-.48,1,1,0,0,0-.59-.23L174,94.7h-.11a.86.86,0,0,0-.59.85c0,.53.35.78,1.05.78Zm-.08-2.74c.57,0,.86-.25.86-.75a.76.76,0,0,0-.68-.81.55.55,0,0,0-.18,0,.75.75,0,0,0-.85.64.86.86,0,0,0,0,.16C173.39,93.31,173.68,93.54,174.25,93.54Z"/><path class="cls-1" d="M176.08,91.76s0-.05.08-.05h.24s.07,0,.07.06v.69a1.4,1.4,0,0,1,.45-.57.94.94,0,0,1,.62-.24c.08,0,.1,0,.08.09V92a.08.08,0,0,1-.07.08h-.13a1,1,0,0,0-.58.27,1,1,0,0,0-.32.53v2.28s0,.06-.08.06h-.25c-.05,0-.07,0-.07-.06Z"/><path class="cls-1" d="M177.53,94.24a.85.85,0,0,1,.46-.86,2.91,2.91,0,0,1,1.21-.2h.37v-.24c0-.65-.25-1-.77-1a.76.76,0,0,0-.76.59c0,.06-.06.06-.11,0l-.18-.09a.08.08,0,0,1,0-.11h0a1.12,1.12,0,0,1,1.11-.76c.76,0,1.14.46,1.14,1.29v2.22s0,.06-.08.06h-.26s-.08,0-.07-.06v-.34a1.43,1.43,0,0,1-1.05.45,1,1,0,0,1-.71-.27.94.94,0,0,1-.29-.74Zm.38,0a.66.66,0,0,0,.64.67h.06a1.31,1.31,0,0,0,1-.45v-1h-.3a3,3,0,0,0-1,.14.61.61,0,0,0-.38.59Z"/><path class="cls-1" d="M180.51,91.75s0,0,.08,0h.24s.08,0,.08,0v.55a1.18,1.18,0,0,1,.42-.44,1,1,0,0,1,.64-.22c.73,0,1.14.47,1.14,1.36v.85a1.42,1.42,0,0,1-.36,1,1.14,1.14,0,0,1-.85.38,1.22,1.22,0,0,1-.62-.16,1,1,0,0,1-.34-.36v1.71s0,.06-.08.06h-.24c-.05,0-.07,0-.07-.06Zm.4,2.31a.93.93,0,0,0,.25.63,1,1,0,0,0,.66.24c.56,0,.86-.34.86-1.08v-.79c0-.7-.27-1-.8-1a1,1,0,0,0-.71.32,1.09,1.09,0,0,0-.29.77Z"/><path class="cls-1" d="M183.64,90.46s0-.06.05-.07h.24s.08,0,.08.06h0v1.82a1.28,1.28,0,0,1,1.1-.63c.64,0,1,.43,1,1.14v2.38a.05.05,0,0,1-.06,0h-.25s-.07,0-.07,0V92.92c0-.64-.22-.92-.69-.92a1,1,0,0,0-.57.22,1.52,1.52,0,0,0-.44.5v2.45s0,.06-.06.06h-.25c-.05,0-.07,0-.07-.06Z"/><path class="cls-1" d="M186.17,91.78h0s0,0,.05,0h.28a.08.08,0,0,1,.07,0l1,2.94.94-2.93a.08.08,0,0,1,.08-.06h.34l-1.25,3.63a2.14,2.14,0,0,1-.85,1.17h-.06a.06.06,0,0,1-.06,0l-.17-.18a.06.06,0,0,1,0-.08h0a1.65,1.65,0,0,0,.86-1.07Z"/><path class="cls-1" d="M40.64,85a.12.12,0,0,1,.11-.14l.5-.18c.11,0,.17,0,.19.12a1.31,1.31,0,0,0,1.42,1,1.34,1.34,0,0,0,.86-.27,1,1,0,0,0,.35-.85,1.12,1.12,0,0,0-.28-.8,4.33,4.33,0,0,0-1.08-.67,5.23,5.23,0,0,1-1.47-.93,1.81,1.81,0,0,1,.12-2.5,2.1,2.1,0,0,1,1.44-.48,2.2,2.2,0,0,1,1.34.39,2.15,2.15,0,0,1,.75,1,.14.14,0,0,1-.07.18h0l-.51.19a.13.13,0,0,1-.17-.06h0a1.27,1.27,0,0,0-1.29-1c-.78,0-1.17.34-1.17,1a.82.82,0,0,0,.22.55,1.76,1.76,0,0,0,.4.37c.12.07.38.21.78.41l.14.08a4.71,4.71,0,0,1,1.34.9A1.81,1.81,0,0,1,45,84.65,1.68,1.68,0,0,1,44.4,86a2.19,2.19,0,0,1-1.55.53,2.52,2.52,0,0,1-1.48-.42A2,2,0,0,1,40.64,85Z"/><path class="cls-1" d="M45.24,81.48c0-.08,0-.12.1-.11H46V80.16a.1.1,0,0,1,.08-.11h.63c.08,0,.11,0,.11.11v1.21h1c.07,0,.11,0,.11.11V82c0,.08,0,.12-.11.12h-1V84.9a1,1,0,0,0,.18.65.87.87,0,0,0,.62.18h.28c.08,0,.12,0,.12.11v.48c0,.08,0,.13-.15.13h-.39a1.73,1.73,0,0,1-1.14-.32A1.52,1.52,0,0,1,46,85V82.07h-.64c-.06,0-.1,0-.1-.12Z"/><path class="cls-1" d="M48.76,81.28c0-.07,0-.1.11-.1h.61c.08,0,.11,0,.11.09v3.56c0,.64.31,1,.85,1A1.78,1.78,0,0,0,51.9,85V81.28c0-.07,0-.1.12-.1h.61c.08,0,.11,0,.11.09v5.06c0,.06,0,.11-.1.11H52c-.08,0-.12,0-.12-.11v-.6a2.3,2.3,0,0,1-1.71.8,1.37,1.37,0,0,1-1.46-1.27,2.81,2.81,0,0,1,0-.29Z"/><path class="cls-1" d="M53.63,83.14a2.18,2.18,0,0,1,.51-1.49,1.7,1.7,0,0,1,1.34-.56,1.79,1.79,0,0,1,1.49.66V79.33c0-.07,0-.11.1-.11h.63a.1.1,0,0,1,.11.09v7a.12.12,0,0,1-.1.12h-.62a.08.08,0,0,1-.1-.07h0v-.59a1.9,1.9,0,0,1-.59.54A2,2,0,0,1,54.15,86a2.06,2.06,0,0,1-.51-1.48Zm.86,1.3c0,.92.46,1.39,1.25,1.39a1.15,1.15,0,0,0,.9-.39,1.36,1.36,0,0,0,.35-.93V83.09a1.19,1.19,0,0,0-.37-.91,1.27,1.27,0,0,0-.92-.36c-.75,0-1.21.48-1.21,1.5Z"/><path class="cls-1" d="M58.91,79.36c0-.09,0-.14.13-.14h.57a.13.13,0,0,1,.15.11v.94a.13.13,0,0,1-.15.15H59c-.08,0-.13,0-.13-.15Zm0,2a.12.12,0,0,1,.11-.14h.6a.15.15,0,0,1,.14.1v5a.15.15,0,0,1-.1.14H59a.11.11,0,0,1-.13-.1h0v-5Z"/><path class="cls-1" d="M60.68,83.1a2,2,0,0,1,.56-1.48,2.14,2.14,0,0,1,1.53-.53,1.87,1.87,0,0,1,2.09,1.61,2.67,2.67,0,0,1,0,.4v1.43A2,2,0,0,1,64.32,86a2.57,2.57,0,0,1-3.09,0,2,2,0,0,1-.55-1.45Zm.86,1.37c0,.9.42,1.35,1.25,1.35s1.25-.46,1.26-1.37V83.18c0-.91-.43-1.37-1.26-1.37s-1.25.44-1.25,1.37Z"/><path class="cls-1" d="M67.39,79.57c0-.08,0-.12.13-.12h1a.14.14,0,0,1,.13.1l1.89,3.76a20.54,20.54,0,0,1,1,2.25h0c-.05-.68-.06-1.35-.06-2v-4a.07.07,0,0,1,.07-.09h.65c.07,0,.11,0,.11.09v6.85a.13.13,0,0,1-.11.12h-.93s-.1,0-.15-.12l-2-4c-.22-.43-.53-1.11-.92-2h0c0,.65.07,1.26.07,1.84v4.15c0,.07,0,.12-.1.12h-.63c-.07,0-.1,0-.1-.12Z"/><path class="cls-1" d="M73.49,79.36c0-.09,0-.14.12-.14h.58a.12.12,0,0,1,.14.14v.91c0,.1,0,.15-.14.15h-.58q-.12,0-.12-.15Zm0,2c0-.09,0-.15.13-.15h.58a.12.12,0,0,1,.13.1h0v5a.13.13,0,0,1-.1.14h-.62a.1.1,0,0,1-.12-.09h0v-5Z"/><path class="cls-1" d="M75.43,81.28c0-.07,0-.1.12-.1h.58c.09,0,.12,0,.12.1V82A2,2,0,0,1,78,81.08a1.32,1.32,0,0,1,1.1.46,1.82,1.82,0,0,1,.37,1.19v3.6c0,.06,0,.11-.12.11H78.7a.1.1,0,0,1-.12-.09V83a1.54,1.54,0,0,0-.2-.86.83.83,0,0,0-.72-.32,1.23,1.23,0,0,0-.8.29,1.76,1.76,0,0,0-.55.69v3.54a.12.12,0,0,1-.1.12h-.63a.1.1,0,0,1-.11-.1v0Z"/><path class="cls-1" d="M80.27,83.11a1.89,1.89,0,0,1,2-2c1.27,0,2,.72,2,2.15v.66a.22.22,0,0,1-.19.23h-3v.37c0,.82.4,1.32,1.2,1.32a1.19,1.19,0,0,0,1.2-.73.13.13,0,0,1,.15-.08h0l.4.2a.16.16,0,0,1,.09.19h0a1.88,1.88,0,0,1-1.87,1.09,1.87,1.87,0,0,1-2-2Zm.85.38h2.35v-.38c0-.81-.39-1.3-1.18-1.3a1.08,1.08,0,0,0-.86.36,1.34,1.34,0,0,0-.31.94Z"/><path class="cls-1" d="M86.72,79.4h2c1.43,0,2.15.68,2.15,2v.31c0,1.38-.72,2.07-2.15,2.06H87.61v2.52c0,.07,0,.12-.11.12h-.66c-.08,0-.11,0-.11-.12ZM87.57,83h1.08A1.14,1.14,0,0,0,90,81.7v-.22a1.12,1.12,0,0,0-.9-1.31,1.14,1.14,0,0,0-.45,0H87.57Z"/><path class="cls-1" d="M91.71,79.33a.1.1,0,0,1,.1-.11s0,0,0,0h.6c.09,0,.13,0,.13.11V82a1.93,1.93,0,0,1,1.62-.9,1.37,1.37,0,0,1,1.11.45,1.93,1.93,0,0,1,.39,1.24v3.55c0,.07,0,.12-.13.12H95a.1.1,0,0,1-.11-.1s0,0,0,0V83c0-.86-.3-1.2-.94-1.2a1.25,1.25,0,0,0-.78.29,1.83,1.83,0,0,0-.56.7v3.54c0,.07,0,.11-.13.11h-.6a.11.11,0,0,1-.12-.08v-7Z"/><path class="cls-1" d="M96.56,83.1a1.93,1.93,0,0,1,.54-1.48,2.14,2.14,0,0,1,1.54-.53,1.86,1.86,0,0,1,2.09,1.61,1.79,1.79,0,0,1,0,.4v1.43a2,2,0,0,1-.56,1.48,2.52,2.52,0,0,1-3.08,0,1.86,1.86,0,0,1-.54-1.45Zm.85,1.37q0,1.35,1.26,1.35c.84,0,1.25-.46,1.26-1.37V83.18c0-.91-.43-1.37-1.26-1.37s-1.26.44-1.26,1.37Z"/><path class="cls-1" d="M101.14,81.48c0-.08,0-.12.1-.11h.65V80.16a.09.09,0,0,1,.08-.11h.64c.07,0,.11,0,.11.11v1.21h1c.07,0,.1,0,.09.11V82c0,.08,0,.12-.09.12h-1V84.9a.69.69,0,0,0,.46.84.65.65,0,0,0,.34,0h.3c.09,0,.13,0,.13.11v.48a.14.14,0,0,1-.11.14h-.43a1.71,1.71,0,0,1-1.14-.32,1.47,1.47,0,0,1-.38-1.17V82.1h-.65c-.06,0-.1,0-.1-.12Z"/><path class="cls-1" d="M104.56,83.1a2,2,0,0,1,.55-1.48,2.17,2.17,0,0,1,1.54-.53,1.87,1.87,0,0,1,2.09,1.61,1.79,1.79,0,0,1,0,.4v1.43a1.94,1.94,0,0,1-.56,1.48,2.52,2.52,0,0,1-3.08,0,2,2,0,0,1-.55-1.45Zm.86,1.37c0,.9.41,1.35,1.25,1.35s1.26-.46,1.26-1.37V83.18c0-.91-.43-1.37-1.26-1.37s-1.25.44-1.25,1.37Z"/><path class="cls-1" d="M110.2,85.56a.75.75,0,0,1-.46-.7.83.83,0,0,1,.5-.74,1.44,1.44,0,0,1-.76-1.34v-.06a1.5,1.5,0,0,1,.52-1.23,2,2,0,0,1,1.38-.43,2.32,2.32,0,0,1,1.21.3,2.15,2.15,0,0,1,1.15-.37c.07,0,.12.05.12.17v.38c0,.08-.07.12-.23.11H113a1.54,1.54,0,0,1,.33,1v.17a1.4,1.4,0,0,1-.52,1.14,2.18,2.18,0,0,1-1.42.42,2,2,0,0,1-.65-.08.42.42,0,0,0-.26.33c0,.19.18.31.54.37l1.16.18a2,2,0,0,1,1.19.51,1.73,1.73,0,0,1,.34,1.12,1.47,1.47,0,0,1-.58,1.19,2.49,2.49,0,0,1-1.65.48c-1.41,0-2.18-.55-2.18-1.54A1.37,1.37,0,0,1,110.2,85.56Zm1.27,2.25c.94,0,1.4-.33,1.4-1a.84.84,0,0,0-.19-.61,1.27,1.27,0,0,0-.77-.3l-.85-.13h-.22a1.06,1.06,0,0,0-.76,1.08c0,.67.46,1,1.4,1Zm-.09-4.08c.76,0,1.13-.32,1.13-1a1,1,0,0,0-.93-1,.69.69,0,0,0-.2,0c-.72,0-1.13.36-1.13,1s.38,1,1.13,1Z"/><path class="cls-1" d="M114.35,81.28c0-.07,0-.1.11-.1H115c.09,0,.13,0,.13.1v1a2.19,2.19,0,0,1,.64-.86,1.58,1.58,0,0,1,1-.32c.1,0,.14,0,.12.14l-.08.59c0,.06,0,.11-.13.12h-.23a1.31,1.31,0,0,0-.8.38,1.57,1.57,0,0,0-.46.72v3.29c0,.07,0,.11-.12.11h-.61a.09.09,0,0,1-.11-.08h0v-5Z"/><path class="cls-1" d="M117,85a1.39,1.39,0,0,1,.69-1.3,3.51,3.51,0,0,1,1.72-.3H120V83c0-.85-.31-1.25-1-1.25a1,1,0,0,0-1,.77c0,.11-.09.12-.19.07l-.43-.21a.14.14,0,0,1-.08-.17h0A1.78,1.78,0,0,1,119,81.07a1.72,1.72,0,0,1,1.33.52,2,2,0,0,1,.47,1.44v3.3c0,.06,0,.1-.12.1h-.57c-.08,0-.12,0-.12-.1v-.52a1.94,1.94,0,0,1-1.53.71,1.46,1.46,0,0,1-1.51-1.4V85Zm.86,0a.79.79,0,0,0,.25.62.91.91,0,0,0,.65.24,1.66,1.66,0,0,0,1.29-.62V84h-.36a3.45,3.45,0,0,0-1.35.18.78.78,0,0,0-.48.77Z"/><path class="cls-1" d="M121.86,81.28c0-.07,0-.1.11-.1h.6c.08,0,.12,0,.12.1V82a2.09,2.09,0,0,1,.64-.65,1.55,1.55,0,0,1,.94-.28c1.1,0,1.75.73,1.75,2v1.32a2.09,2.09,0,0,1-.55,1.53,1.89,1.89,0,0,1-1.36.55,1.82,1.82,0,0,1-.86-.21,1.3,1.3,0,0,1-.51-.53v2.56a.11.11,0,0,1-.09.11H122a.1.1,0,0,1-.12-.08v0Zm.85,3.29a1.24,1.24,0,0,0,.35.9,1.27,1.27,0,0,0,.92.35c.8,0,1.2-.49,1.2-1.45v-1.1c0-1-.36-1.45-1.11-1.45a1.29,1.29,0,0,0-.95.42,1.42,1.42,0,0,0-.41,1Z"/><path class="cls-1" d="M127,79.33c0-.07,0-.11.12-.11h.59c.09,0,.13,0,.13.11V82a1.93,1.93,0,0,1,1.62-.9,1.37,1.37,0,0,1,1.11.45,1.87,1.87,0,0,1,.39,1.24v3.55c0,.07,0,.12-.13.12h-.6a.1.1,0,0,1-.12-.09V83c0-.86-.28-1.2-.92-1.2a1.32,1.32,0,0,0-.79.29,1.83,1.83,0,0,0-.56.7v3.54c0,.07,0,.11-.13.11h-.59c-.09,0-.12,0-.12-.11Z"/><path class="cls-1" d="M131.23,81.28h0s0-.06.08-.06H132a.11.11,0,0,1,.12.08l1.28,4.11,1.28-4.11a.12.12,0,0,1,.11-.09h.68c.05,0,.08,0,.08.07h0l-1.85,5.3a3.45,3.45,0,0,1-1.44,1.91h-.1a.31.31,0,0,1-.1,0l-.32-.44c-.07-.08-.07-.15,0-.19A2.51,2.51,0,0,0,133,86.34Z"/><path class="cls-1" d="M43.39,46.31a0,0,0,0,1,0,0h.23s0,0,0,0v2.35s0,0,0,0h-.23s0,0,0,0Z"/><path class="cls-1" d="M44.06,46.32s0,0,0,0h.34a.05.05,0,0,1,0,0l.64,1.3a7.59,7.59,0,0,1,.35.77h0q0-.35,0-.69V46.31a0,0,0,0,1,0,0h.22s0,0,0,0v2.35s0,0,0,0h-.31s0,0,0,0l-.69-1.36c-.07-.15-.18-.38-.31-.7h0c0,.23,0,.44,0,.63v1.44s0,0,0,0h-.22s0,0,0,0Z"/><path class="cls-1" d="M46.09,48.7V46.28h.8a.77.77,0,0,1,.58.22.85.85,0,0,1,.2.57v.85a.8.8,0,0,1-.2.57.83.83,0,0,1-.58.21Zm.3-.27h.46a.48.48,0,0,0,.54-.41.33.33,0,0,0,0-.14V47.1a.48.48,0,0,0-.42-.55h-.58Z"/><path class="cls-1" d="M48,46.31a0,0,0,0,1,0,0h.24s0,0,0,0h0V48c0,.32.17.48.5.48s.54-.17.54-.48V46.31s0,0,0,0h.22s0,0,0,0h0V48a.73.73,0,0,1-.21.52,1,1,0,0,1-1.21,0A.68.68,0,0,1,48,48Z"/><path class="cls-1" d="M49.75,48.19s0,0,0,0l.18-.06s0,0,.06,0a.44.44,0,0,0,.49.34.46.46,0,0,0,.3-.09.31.31,0,0,0,.12-.28.36.36,0,0,0-.1-.28,1.54,1.54,0,0,0-.37-.23,2,2,0,0,1-.5-.31.62.62,0,0,1,0-.86.79.79,0,0,1,1.22.32,0,0,0,0,1,0,.06h0l-.18.06a0,0,0,0,1,0,0h0a.45.45,0,0,0-.46-.32c-.26,0-.41.12-.41.34a.31.31,0,0,0,.07.2.81.81,0,0,0,.14.12l.27.14,0,0a1.44,1.44,0,0,1,.46.31.59.59,0,0,1,.15.44.58.58,0,0,1-.18.48.79.79,0,0,1-.53.18.92.92,0,0,1-.51-.15.71.71,0,0,1-.25-.38Z"/><path class="cls-1" d="M51.18,46.32s0,0,0,0h1.6s0,0,0,0v.2s0,0,0,0h-.63v2.12a0,0,0,0,1,0,0h-.24s0,0,0,0V46.55h-.67s0,0,0,0Z"/><path class="cls-1" d="M52.93,46.28h.73c.47,0,.71.22.71.66v.14a.59.59,0,0,1-.41.63l.48.95h0s0,0,0,0h-.27a.05.05,0,0,1,0,0l-.46-.89h-.42v.91s0,0,0,0H53s0,0,0,0h0v-2.4Zm.3,1.23h.41a.38.38,0,0,0,.42-.35.25.25,0,0,0,0-.08V47a.37.37,0,0,0-.1-.31.47.47,0,0,0-.34-.1h-.39Z"/><path class="cls-1" d="M54.65,46.31a0,0,0,0,1,0,0h.23s0,0,0,0v2.35s0,0,0,0h-.23s0,0,0,0Z"/><path class="cls-1" d="M55.82,46.32s0,0,.06,0h.24s.05,0,.05,0l.71,2.34s0,0,0,0a0,0,0,0,1,0,0h-.24a.05.05,0,0,1,0,0L56.38,48h-.79l-.2.66s0,0,0,0h-.21s0,0,0,0v0Zm-.16,1.44h.65L56,46.65Z"/><path class="cls-1" d="M57,48.7V46.31a0,0,0,0,1,0,0h.23s0,0,0,0v2.12h1s0,0,0,0v.18s0,0,0,0Z"/><path class="cls-1" d="M58.88,46.28h.7c.49,0,.74.23.74.7v.11a.64.64,0,0,1-.74.71h-.41v.86s0,0,0,0h-.23s0,0,0,0Zm.29,1.25h.37a.44.44,0,0,0,.36-.11.53.53,0,0,0,.1-.35V47a.38.38,0,0,0-.47-.45h-.36Z"/><path class="cls-1" d="M60.54,46.31a0,0,0,0,1,0,0h.24s0,0,0,0v1h1.07v-1a0,0,0,0,1,0,0h.23s0,0,0,0v2.36s0,0,0,0H62s0,0,0,0h0V47.62H60.85v1.05a0,0,0,0,1,0,0h-.23s0,0,0,0h0V46.31Z"/><path class="cls-1" d="M62.52,47.18a1.07,1.07,0,0,1,.19-.69.81.81,0,0,1,.66-.25.88.88,0,0,1,.62.22.74.74,0,0,1,.23.58v.76a1,1,0,0,1-.2.7.76.76,0,0,1-.65.24.89.89,0,0,1-.63-.21.69.69,0,0,1-.22-.57Zm.3.75a.49.49,0,0,0,.45.54h.1a.49.49,0,0,0,.55-.55v-.86a.56.56,0,0,0-.14-.41.64.64,0,0,0-.82,0,.53.53,0,0,0-.15.41Z"/><path class="cls-1" d="M64.22,46.32s0,0,0,0h1.61s0,0,0,0v.2s0,0,0,0H65.2v2.12s0,0,0,0h-.25s0,0,0,0V46.55h-.64s0,0,0,0Z"/><path class="cls-1" d="M65.89,47.18a1,1,0,0,1,.2-.69.8.8,0,0,1,.65-.25.88.88,0,0,1,.62.22.74.74,0,0,1,.23.58v.76a1,1,0,0,1-.2.7.76.76,0,0,1-.65.24.91.91,0,0,1-.63-.21.76.76,0,0,1-.22-.57Zm.3.75a.49.49,0,0,0,.45.54h.1a.49.49,0,0,0,.55-.55v-.86a.5.5,0,0,0-.46-.54h-.09a.5.5,0,0,0-.55.44v1Z"/><path class="cls-1" d="M67.87,47a.81.81,0,0,1,.22-.59.87.87,0,0,1,.62-.21.73.73,0,0,1,.78.53v0s0,.05,0,.05l-.18.06s0,0-.06,0a.51.51,0,0,0-.5-.35c-.35,0-.54.16-.54.57v.85a.47.47,0,0,0,.4.53h.14a.55.55,0,0,0,.35-.1.48.48,0,0,0,.18-.41v-.28h-.47s0,0,0,0v-.16s0,0,0,0h.7s.06,0,.06.05V48a.73.73,0,0,1-.23.55.9.9,0,0,1-.61.2.86.86,0,0,1-.6-.2.78.78,0,0,1-.22-.58Z"/><path class="cls-1" d="M69.79,46.28h.73c.47,0,.7.22.7.66v.14a.58.58,0,0,1-.41.63l.49.95h0s0,0,0,0H71s0,0,0,0l-.45-.89h-.42v.91s0,0,0,0h-.22a.05.05,0,0,1,0,0v-2.4Zm.3,1.23h.41a.37.37,0,0,0,.41-.35.11.11,0,0,0,0-.08V47a.4.4,0,0,0-.1-.31.48.48,0,0,0-.35-.1h-.38Z"/><path class="cls-1" d="M72,46.32s0,0,.06,0h.25s0,0,.06,0l.71,2.34v0s0,0,0,0h-.24a.05.05,0,0,1,0,0L72.58,48h-.82l-.2.66s0,0,0,0H71.3s0,0,0,0v0Zm-.16,1.44h.65l-.32-1.11Z"/><path class="cls-1" d="M73.19,46.28h.69c.5,0,.74.23.74.7v.11c0,.47-.24.71-.74.71h-.39v.86s0,0,0,0h-.23s0,0,0,0h0Zm.3,1.25h.37a.44.44,0,0,0,.36-.11.48.48,0,0,0,.1-.35V47a.5.5,0,0,0-.1-.35.51.51,0,0,0-.36-.1h-.37Z"/><path class="cls-1" d="M74.85,46.31s0,0,0,0h.22s0,0,0,0v1h1.07v-1a0,0,0,0,1,0,0h.23s0,0,0,0v2.36a0,0,0,0,1,0,0h-.23s0,0,0,0V47.62H75.15v1.05a0,0,0,0,1,0,0h-.23s0,0,0,0h0Z"/><path class="cls-1" d="M76.61,46.32v0h.26s0,0,0,0l.57,1.12.58-1.13a.05.05,0,0,1,0,0h.28l-.73,1.43v1s0,0,0,0h-.23s0,0,0,0v-1Z"/><path class="cls-1" d="M78,49s0,0,0-.05h0a.45.45,0,0,0,.14-.24,3.25,3.25,0,0,0,0-.44s0,0,0,0h.2s0,0,0,0a.89.89,0,0,1-.34.82s0,0,0,0Z"/><path class="cls-1" d="M79,48.19a0,0,0,0,1,0,0l.17-.06a.06.06,0,0,1,.07,0,.53.53,0,0,0,.79.25.34.34,0,0,0,.11-.28.37.37,0,0,0-.09-.28,1.76,1.76,0,0,0-.37-.23,2,2,0,0,1-.5-.31.6.6,0,0,1,0-.86.74.74,0,0,1,1.06.07.87.87,0,0,1,.15.25,0,0,0,0,1,0,.06h0l-.18.06s0,0,0,0h0a.43.43,0,0,0-.47-.32c-.27,0-.41.11-.41.34a.26.26,0,0,0,.07.19.4.4,0,0,0,.13.13l.27.14,0,0a1.55,1.55,0,0,1,.46.31.69.69,0,0,1,.15.44.63.63,0,0,1-.2.47.79.79,0,0,1-.53.18.84.84,0,0,1-.51-.14.68.68,0,0,1-.25-.39Z"/><path class="cls-1" d="M80.69,46.31s0,0,0,0h.23s0,0,0,0v2.35s0,0,0,0h-.23s0,0,0,0h0Z"/><path class="cls-1" d="M81.35,46.32a.05.05,0,0,1,0,0h.35a.05.05,0,0,1,0,0l.65,1.3a7.51,7.51,0,0,1,.34.77h0c0-.23,0-.46,0-.69V46.31a0,0,0,0,1,0,0H83s0,0,0,0v2.35s0,0,0,0h-.31s0,0,0,0l-.69-1.36c-.07-.15-.18-.38-.31-.7h0c0,.23,0,.44,0,.63v1.44a0,0,0,0,1,0,0H81.4a0,0,0,0,1,0,0h0Z"/><path class="cls-1" d="M83.35,47a.77.77,0,0,1,.22-.58.81.81,0,0,1,.59-.22.72.72,0,0,1,.74.53v0a.06.06,0,0,1,0,.06l-.17.06a0,0,0,0,1-.06,0,0,0,0,0,1,0,0,.47.47,0,0,0-.48-.35.48.48,0,0,0-.51.44v1a.47.47,0,0,0,.51.54.46.46,0,0,0,.47-.36s0,0,.06,0h0l.16.06s0,0,0,0h0v0a.73.73,0,0,1-.26.36.83.83,0,0,1-.48.15.7.7,0,0,1-.82-.56.89.89,0,0,1,0-.23Z"/><path class="cls-1" d="M85.12,48.7V46.28h1.23s0,0,0,0v.2s0,0,0,0h-.92v.78h.82s0,0,0,0v.18s0,0,0,0h-.82v.82h.92s0,0,0,0v.19s0,0,0,0Z"/><path class="cls-1" d="M87,46.93a.07.07,0,0,1,0,0h.2s0,0,0,0v.35s0,0,0,0H87a.05.05,0,0,1-.05,0h0Zm0,1.37s0-.06.05-.06h.19s0,0,0,.06v.34s0,.06,0,.06H87a.07.07,0,0,1-.05,0h0Z"/><path class="cls-1" d="M88,48.7v-.23a.91.91,0,0,1,.15-.58,1.58,1.58,0,0,1,.58-.41,1.33,1.33,0,0,0,.41-.25.47.47,0,0,0,0-.59.42.42,0,0,0-.32-.11.48.48,0,0,0-.31.08.51.51,0,0,0-.18.26.06.06,0,0,1-.07.05l-.16-.06a.06.06,0,0,1,0-.08.79.79,0,0,1,.76-.53.76.76,0,0,1,.54.19.68.68,0,0,1,.19.5.63.63,0,0,1-.14.44,1.64,1.64,0,0,1-.52.35,1.45,1.45,0,0,0-.47.3.52.52,0,0,0-.1.34v.07h1.17s0,0,0,0v.19s0,0,0,0Z"/><path class="cls-1" d="M89.78,47a.78.78,0,0,1,1.56,0v1a.7.7,0,0,1-.61.77h-.17a.69.69,0,0,1-.78-.57.67.67,0,0,1,0-.2Zm.3.93c0,.35.16.52.48.52S91,48.31,91,48V47c0-.35-.14-.52-.48-.52s-.48.17-.48.52Z"/><path class="cls-1" d="M91.62,46.61s0,0,0,0l.14,0a1.66,1.66,0,0,0,.38-.11.76.76,0,0,0,.11-.14h.17v2.15h.41s0,0,0,0v.2s0,0,0,0H91.69s0,0,0,0v-.19s0,0,0,0h.45v-1.7l-.49.06s0,0,0,0Z"/><path class="cls-1" d="M93.12,48.13l.15-.06a.05.05,0,0,1,.08,0,.5.5,0,0,0,.52.37.54.54,0,0,0,.34-.12.44.44,0,0,0,.13-.31v0a.41.41,0,0,0-.38-.44h-.25s0,0,0,0v-.2s0,0,0,0h.16a.48.48,0,0,0,.3-.11.33.33,0,0,0,.11-.27v0c0-.24-.14-.37-.41-.37a.43.43,0,0,0-.46.33s0,0-.06,0l-.16-.07s0,0,0-.07a.7.7,0,0,1,.71-.5c.46,0,.7.23.7.63v.06a.48.48,0,0,1-.1.33.45.45,0,0,1-.27.18.53.53,0,0,1,.41.56v0a.64.64,0,0,1-.21.5.92.92,0,0,1-1.07,0,.68.68,0,0,1-.26-.37.07.07,0,0,1,0-.07s0,0,.07,0Z"/><rect class="cls-5" width="595.28" height="115.35"/></svg>